<?xml version="1.0" standalone="no"?>
<!DOCTYPE svg PUBLIC "-//W3C//DTD SVG 1.1//EN" "http://www.w3.org/Graphics/SVG/1.1/DTD/svg11.dtd" >
<!--
2013-9-30: Created.
-->
<svg>
<metadata>
Created by iconfont
</metadata>
<defs>

<font id="template" horiz-adv-x="1024" >
  <font-face
    font-family="template"
    font-weight="500"
    font-stretch="normal"
    units-per-em="1024"
    ascent="896"
    descent="-128"
  />
    <missing-glyph />
    
    <glyph glyph-name="danganhe" unicode="&#58915;" d="M352-64H96V832h256z m-192 64h128V768H160z m480-64H384V832h256z m-192 64h128V768H448z m480-64H672V832h256z m-192 64h128V768H736zM128 720h160v-64H128z m288 0h160v-64H416z m304 0h160v-64H720zM128 336h160v-64H128z m288 0h160v-64H416z m304 0h160v-64H720zM192 224h64v-48h-64z m288 0h64v-48h-64z m288 0h64v-48h-64z"  horiz-adv-x="1024" />

    
    <glyph glyph-name="home" unicode="&#58936;" d="M89.489 543.443c0-1.001-77.21-70.204-77.21-70.204-14.87-13.011-16.443-35.46-3.575-50.33 7.006-8.15 17.015-12.296 27.024-12.296 8.293 0 16.729 2.86 23.449 8.722l452.824 393.772 452.967-393.772c6.72-5.862 15.156-8.722 23.449-8.722 10.009 0 19.874 4.146 27.024 12.296 13.011 14.87 11.439 37.461-3.575 50.33v0l-88.935 77.353v100.087c0 19.732-16.014 35.745-35.745 35.745s-35.745-16.014-35.745-35.745v-38.033l-315.99 274.668c0 0 0 0 0 0-2.288 2.002-4.861 3.718-7.435 5.004 0 0 0 0 0 0-0.429 0.286-1.001 0.429-1.43 0.715 0 0-0.143 0-0.143 0.143-0.429 0.143-0.858 0.429-1.287 0.572-0.143 0-0.143 0.143-0.286 0.143-0.429 0.143-0.715 0.286-1.144 0.429-0.143 0-0.286 0.143-0.429 0.143-0.286 0.143-0.715 0.286-1.001 0.286-0.143 0-0.429 0.143-0.572 0.143-0.286 0.143-0.715 0.143-1.001 0.286-0.143 0-0.429 0.143-0.715 0.143-0.429 0.143-0.715 0.143-1.144 0.143-0.143 0-0.429 0.143-0.572 0.143-0.429 0-0.858 0.143-1.287 0.143-0.143 0-0.286 0-0.429 0-0.572 0-1.001 0.143-1.573 0.143 0 0-0.143 0-0.143 0-5.576 0.429-11.296-0.429-16.586-2.717 0 0-0.143 0-0.143-0.143-0.429-0.143-0.715-0.286-1.144-0.572-0.143-0.143-0.286-0.143-0.572-0.286-0.286-0.143-0.572-0.286-0.858-0.429-0.286-0.143-0.572-0.286-0.858-0.429-0.143-0.143-0.429-0.143-0.572-0.286-0.286-0.143-0.715-0.429-1.001-0.572-0.143 0-0.286-0.143-0.286-0.143-0.429-0.286-0.858-0.572-1.144-0.858 0 0-0.143-0.143-0.143-0.143-0.429-0.286-0.858-0.572-1.287-1.001 0 0-0.143-0.143-0.143-0.143-0.429-0.286-0.858-0.715-1.144-1.001 0 0 0 0-0.143 0l-327.858-284.677-71.491-59.052zM893.19 416.618c-19.732 0-35.745-16.014-35.745-35.745v-354.881c0-44.753-30.741-82.644-67.201-82.644h-556.2c-36.46 0-67.201 37.89-67.201 82.644l-0 354.881c0 19.732-16.014 35.745-35.745 35.745s-35.745-16.014-35.745-35.745v-354.881c0-84.931 62.197-153.992 138.692-153.992h556.2c76.495 0 138.692 69.060 138.692 153.992l-0 354.881c0 19.732-16.014 35.745-35.745 35.745v0z"  horiz-adv-x="1025" />

    
    <glyph glyph-name="job" unicode="&#59039;" d="M168.3 741.6h686c28.8 0 54.9-11.7 73.7-30.7 18.9-19 30.8-45.1 30.8-73.9v-487.5c0-28.8-11.8-54.9-30.8-73.9-18.8-18.9-45-30.7-73.7-30.7h-686c-28.8 0-54.9 11.7-73.9 30.7-18.9 18.9-30.6 45.1-30.6 73.9v487.6c0 28.8 11.7 54.8 30.6 73.9 19 18.9 45.2 30.6 73.9 30.6zM854.3 702.2h-686c-17.9 0-34.1-7.4-45.9-19.2-11.8-11.8-19.1-28-19.1-45.9v-487.5c0-17.9 7.3-34.1 19.1-45.9 11.8-11.8 28-19.2 45.9-19.2h686c17.8 0 34.1 7.3 45.9 19.2 11.7 11.8 19.1 28 19.1 45.9v487.5c0 17.9-7.4 34.1-19.1 45.9-11.8 11.7-28.1 19.2-45.9 19.2zM183.7 210.4c3.9 44.2 23.4 83.9 53.1 113.6 21.1 21.1 47.5 37.3 76.9 46-11.5 5.8-22 13.4-31 22.4-21.4 21.5-34.7 51.2-34.7 84s13.3 62.6 34.7 84c21.5 21.6 51.3 34.9 84.1 34.9 32.7 0 62.4-13.3 84-34.9 21.5-21.5 34.8-51.2 34.8-84s-13.3-62.6-34.8-84c-9-9-19.5-16.6-31-22.4 29.5-8.9 55.8-24.9 77-46 29.7-29.7 49.3-69.6 53.1-114 2.1-24.1-18.7-25.2-20.9-0.9-3.6 38.9-20.9 74-47.1 100.1-29.5 29.5-70.2 47.8-115.2 47.8-45.1 0-85.8-18.3-115.3-47.8-25.8-25.7-43-60.3-46.9-98.7-2.5-26.7-23-24.4-20.8-0.1zM436.1 545.7c-17.8 17.7-42.3 28.7-69.2 28.7-27.1 0-51.6-11-69.2-28.7-17.9-17.7-28.7-42.2-28.7-69.3 0-27.1 10.9-51.6 28.7-69.3 17.7-17.7 42.2-28.7 69.2-28.7s51.5 11 69.2 28.7c17.7 17.7 28.7 42.2 28.7 69.3 0 27.1-11 51.6-28.7 69.3zM579.2 540.3h232.5c8.8 0 16.1-7.2 16.1-16.1 0-8.9-7.3-16.1-16.1-16.1h-232.5c-8.9 0-16.1 7.2-16.1 16.1 0 8.8 7.2 16.1 16.1 16.1zM598.6 409.4h213.2c8.8 0 16.1-7.2 16.1-16.1 0-8.9-7.3-16.2-16.1-16.2h-213.2c-8.9 0-16.1 7.3-16.1 16.2s7.2 16.1 16.1 16.1zM614.8 278.6h197c8.8 0 16.1-7.3 16.1-16.1 0-8.9-7.3-16.2-16.1-16.2h-197c-8.9 0-16.2 7.3-16.2 16.2 0 8.8 7.3 16.1 16.2 16.1z"  horiz-adv-x="1024" />

    
    <glyph glyph-name="cunchushezhi" unicode="&#58981;" d="M874.4 860H149.6c-64 0-115.2-51.2-115.2-115.2v-725.6c0-64 51.2-115.2 115.2-115.2h433.6c23.2 0 38.4 24 28.8 45.6l-5.6 12.8c-4.8 11.2-16.8 18.4-28.8 18.4H149.6c-21.6 0-38.4 16.8-38.4 38.4V744.8c0 21.6 16.8 38.4 38.4 38.4h725.6c21.6 0 38.4-16.8 38.4-38.4v-428c0-12.8 7.2-24 19.2-29.6l12.8-5.6c20.8-8.8 44.8 6.4 44.8 29.6V744.8c-0.8 63.2-52 115.2-116 115.2zM720 793.6v-300c0-24-17.6-42.4-38.4-42.4H343.2c-20.8 0-38.4 18.4-38.4 42.4V793.6h-76.8v-300c0-65.6 51.2-119.2 115.2-119.2h338.4c64 0 115.2 53.6 115.2 119.2V793.6H720zM570.4 698.4v-153.6c0-21.6 16.8-38.4 38.4-38.4s38.4 16.8 38.4 38.4V698.4c0 21.6-16.8 38.4-38.4 38.4s-38.4-16.8-38.4-38.4zM797.6-112h-7.2c-26.4 0-47.2 21.6-47.2 47.2v4c-9.6 3.2-18.4 7.2-27.2 12l-1.6-1.6c-18.4-18.4-48.8-18.4-67.2 0l-4.8 4.8c-18.4 18.4-18.4 48.8 0 67.2l2.4 2.4c-4.8 8.8-8 18.4-11.2 28H632c-26.4 0-47.2 21.6-47.2 47.2v7.2c0 26.4 21.6 47.2 47.2 47.2h4c3.2 9.6 7.2 18.4 12 27.2l-1.6 1.6c-18.4 18.4-18.4 48.8 0 67.2l4.8 4.8c18.4 18.4 48.8 18.4 67.2 0l2.4-2.4c8.8 4.8 18.4 8 28 11.2v1.6c0 26.4 21.6 47.2 47.2 47.2h7.2c26.4 0 47.2-21.6 47.2-47.2v-4c9.6-3.2 18.4-7.2 27.2-12l1.6 1.6c18.4 18.4 48.8 18.4 67.2 0l4.8-4.8c18.4-18.4 18.4-48.8 0-67.2l-2.4-2.4c4.8-8.8 8-18.4 11.2-28h1.6c26.4 0 47.2-21.6 47.2-47.2v-7.2c0-26.4-21.6-47.2-47.2-47.2h-4c-3.2-9.6-7.2-18.4-12-27.2l1.6-1.6c18.4-18.4 18.4-48.8 0-67.2l-4.8-4.8c-18.4-18.4-48.8-18.4-67.2 0l-2.4 2.4c-8.8-4.8-18.4-8-28-11.2v-1.6c0-25.6-21.6-47.2-47.2-47.2z m-87.2 106.4l12-8c12.8-8.8 27.2-14.4 41.6-18.4l12.8-3.2v-29.6c0-7.2 5.6-13.6 13.6-13.6h7.2c7.2 0 13.6 5.6 13.6 13.6v28.8l13.6 2.4c15.2 3.2 29.6 8.8 42.4 16.8l11.2 7.2 20.8-20.8c4.8-4.8 13.6-4.8 18.4 0l4.8 4.8c4.8 4.8 4.8 13.6 0 18.4l-20.8 20.8 8 12c8.8 12.8 14.4 27.2 18.4 41.6l3.2 12.8h29.6c7.2 0 13.6 5.6 13.6 13.6v7.2c0 7.2-5.6 13.6-13.6 13.6h-28.8l-2.4 13.6c-3.2 15.2-8.8 29.6-16.8 42.4l-7.2 11.2 20.8 20.8c4.8 4.8 4.8 13.6 0 18.4l-4.8 4.8c-4.8 4.8-13.6 4.8-18.4 0l-20.8-20.8-12 8c-12.8 8.8-27.2 14.4-41.6 18.4l-12.8 3.2V264c0 7.2-5.6 13.6-13.6 13.6h-7.2c-7.2 0-13.6-5.6-13.6-13.6v-28.8l-13.6-2.4c-15.2-3.2-29.6-8.8-42.4-16.8l-11.2-7.2-20.8 20.8c-4.8 4.8-13.6 4.8-18.4 0l-4.8-4.8c-4.8-4.8-4.8-13.6 0-18.4l20.8-20.8-8-12c-8.8-12.8-14.4-27.2-18.4-41.6l-3.2-12H632c-7.2 0-13.6-5.6-13.6-13.6v-7.2c0-7.2 5.6-13.6 13.6-13.6h28.8l2.4-13.6c3.2-15.2 8.8-29.6 16.8-42.4l7.2-11.2-20.8-20.8c-4.8-4.8-4.8-13.6 0-18.4l4.8-4.8c4.8-4.8 13.6-4.8 18.4 0l20.8 20zM796.8 9.6c-49.6 0-90.4 40.8-90.4 90.4s40.8 90.4 90.4 90.4c49.6 0 90.4-40.8 90.4-90.4s-40.8-90.4-90.4-90.4z m0 146.4c-31.2 0-56-24.8-56-56s24.8-56 56-56 56 24.8 56 56-24.8 56-56 56z"  horiz-adv-x="1024" />

    
    <glyph glyph-name="fenxipinggu" unicode="&#59140;" d="M1016.321 240.144L888.004 368.468c-5.258 5.266-12.261 8.167-19.725 8.167-7.478 0-14.481-2.9-19.74-8.167L528.517 48.455c-5.274-5.314-8.175-12.339-8.175-19.796v-126.782c0-15.392 12.523-27.915 27.931-27.915H676.08c7.449 0 14.467 2.883 19.771 8.143l191.705 191.71c5.273 5.261 8.173 12.277 8.173 19.742 0 7.465-2.9 14.482-8.173 19.74-5.261 5.268-12.262 8.167-19.725 8.167-7.481 0-14.483-2.899-19.742-8.167l-182.48-183.504-89.421-0.879-0.771 87.409 292.26 293.523 90.114-88.873-24.477-25.633-44.802 44.804c-5.26 5.266-12.261 8.165-19.725 8.165-7.481 0-14.482-2.899-19.742-8.165-5.274-5.26-8.173-12.277-8.173-19.734 0-7.465 2.899-14.482 8.173-19.742l63.896-63.896c5.274-5.274 12.277-8.173 19.742-8.173s14.466 2.899 19.74 8.173l63.896 63.896c5.274 5.26 8.174 12.278 8.174 19.742 0.002 7.465-2.898 14.475-8.172 19.734zM864.291 529.964l-0.038 76.588c-0.049 2.837-0.663 5.119-1.285 7.515-0.18 0.964-0.564 2.952-1.497 5.028-0.956 2.208-2.15 3.778-3 4.923-2.085 3.295-3.083 4.521-3.402 4.537l-1.447 1.554c-1.636 1.521-3.149 2.388-4.529 3.125-1.293 0.873-3.256 2.198-6.011 3.287-2.362 0.907-4.481 1.226-6.148 1.455-0.899 0.246-2.992 0.826-5.626 0.826H635.426c-18.208 0-33.016-14.824-33.016-33.05 0-18.225 14.808-33.049 33.016-33.049h121.723L535.436 326.351 339.641 507.707 154.009 301.47c-5.887-6.558-8.872-15.02-8.404-23.834 0.457-8.814 4.317-16.901 10.842-22.755a32.933 32.933 0 0 1 22.158-8.553 32.922 32.922 0 0 1 24.529 10.965l140.741 156.4 195.829-181.348L798.269 519.66v-56.452l66.022 66.756zM66.553-10.717V787.064c0 21.782 17.728 39.501 39.517 39.501h797.766c21.791 0 39.517-17.719 39.517-39.501v-278.025l66.05-65.325V787.063c0 58.218-47.358 105.575-105.566 105.575H106.07C47.854 892.638 0.495 845.281 0.495 787.063v-797.781c0-58.2 47.358-105.559 105.575-105.566h237.488v66.067H106.07c-21.789-0.001-39.517 17.718-39.517 39.5z"  horiz-adv-x="1024" />

    
    <glyph glyph-name="tongyongshezhi" unicode="&#58919;" d="M51.218284 716.472754H232.696565V684.264677c0-27.794259 18.518845-50.598985 46.249136-50.598985 27.762275 0 46.28112 22.708773 46.28112 50.598985V716.472754h514.68955c27.762275 0 50.503033 18.518845 50.503033 46.28112s-22.644805 46.28112-50.503033 46.281119H325.258805V845.401015C325.258805 873.16329 306.707976 896 278.945701 896 251.21541 896 232.696565 873.291227 232.696565 845.401015v-36.238085H51.218284c-27.762275 0-50.535017-18.518845-50.535017-46.28112-0.127937-27.890212 22.644805-46.409057 50.535017-46.409056z m788.602135-213.110644h-218.388035v27.762275c0 27.794259-18.486861 50.630969-46.249135 50.63097-27.794259 0-46.313104-22.740758-46.313104-50.63097v-27.762275H51.218284c-27.762275 0-50.535017-27.762275-50.535017-55.652486s22.644805-55.652487 50.535017-55.652487H528.870145v-21.68528c0-27.794259 18.518845-50.630969 46.313104-50.630969 27.762275 0 46.249136 22.740758 46.249135 50.630969v21.813217h218.388035c27.762275 0 50.471048 27.794259 50.471048 55.620502 0 27.890212-22.580837 55.556534-50.471048 55.556534z m-420.560086-315.04425h-70.365213v29.361485c0 27.762275-18.454876 50.630969-46.28112 50.630969-27.730291 0-46.249136-22.740758-46.249136-50.630969v-29.361485H51.218284a51.046764 51.046764 0 0 1 0-102.061543h205.114596v-29.841247c0-27.762275 18.518845-50.630969 46.249136-50.63097 27.826243 0 46.28112 22.740758 46.28112 50.63097v29.841247h70.365213a51.046764 51.046764 0 0 1 0.031984 102.061543z m592.539063-158.257761l-8.25192 4.34985a43.370559 43.370559 0 0 0-0.127937 75.00292l8.251921 4.317865a22.868694 22.868694 0 0 1 11.642244 23.892189 222.577963 222.577963 0 0 1-11.738197 28.401958 22.964647 22.964647 0 0 1-25.171556 8.667715l-8.85962-2.718656a43.402543 43.402543 0 0 0-53.061767 53.061768l2.75064 8.891604a22.804726 22.804726 0 0 1-8.699699 25.139572 223.761378 223.761378 0 0 1-28.433943 11.738197 22.868694 22.868694 0 0 1-23.860204-11.642245l-4.381834-8.219936a43.338574 43.338574 0 0 0-74.938952 0l-4.34985 8.219936a22.900678 22.900678 0 0 1-23.892188 11.642245c-4.893581-1.599209-9.723193-3.294371-14.520821-5.34136-4.765644-1.98302-9.46732-4.157944-14.041059-6.396837a23.284489 23.284489 0 0 1-8.667715-25.267509l2.750641-8.891604c3.774134-14.392885 0-30.384978-11.322403-41.707381-11.322402-11.322402-27.314496-15.128521-41.707381-11.322402l-8.923588 2.846593a22.740758 22.740758 0 0 1-25.139572-8.667715 231.533536 231.533536 0 0 1-11.770181-28.401959 23.252505 23.252505 0 0 1 11.674229-24.020125l8.219936-4.34985a43.338574 43.338574 0 0 0 0.127937-74.970936l-8.251921-4.317865a22.900678 22.900678 0 0 1-11.61026-23.892189c1.567225-4.797628 3.35834-9.755177 5.341359-14.392884 1.951035-4.797628 4.093976-9.499304 6.428822-14.073043a23.028615 23.028615 0 0 1 25.075603-8.667715l8.955573 2.718656c14.392885 3.774134 30.448947 0.127937 41.675397-11.322402 11.354387-11.322402 15.096537-27.314496 11.354386-41.739365l-2.910561-8.891605a23.028615 23.028615 0 0 1 8.667715-25.107587c4.605723-2.302862 9.275414-4.477786 14.041059-6.396838 4.797628-2.046988 9.627241-3.774134 14.424868-5.373343a22.964647 22.964647 0 0 1 23.860204 11.642244l4.34985 8.251921a43.370559 43.370559 0 0 0 74.970936 0.095952l4.34985-8.347873c4.477786-8.571762 14.520821-13.241454 23.860204-11.642244a225.264635 225.264635 0 0 1 28.465927 11.770181 23.028615 23.028615 0 0 1 8.667715 25.107587l-2.782624 8.795652a43.434527 43.434527 0 0 0 11.354386 41.835318c11.290418 11.322402 27.314496 15.096537 41.675397 11.322402l8.923588-2.846592a23.028615 23.028615 0 0 1 25.139572 8.667714 206.777774 206.777774 0 0 1 11.770181 28.433943 22.708773 22.708773 0 0 1-11.354387 24.116078m-187.299403-63.77647a105.611788 105.611788 0 1 0 0 211.159607 105.611788 105.611788 0 0 0 0-211.159607"  horiz-adv-x="1024" />

    
    <glyph glyph-name="anjian1" unicode="&#58914;" d="M219.678547 723.716825h464.454643c22.297822 0 40.496045-18.198223 40.496045-40.496046s-18.198223-40.496045-40.496045-40.496045H219.678547c-22.297822 0-40.496045 18.198223-40.496045 40.496045 0.19998 22.497803 18.198223 40.496045 40.496045 40.496046z m0-487.452398h250.375549c22.297822 0 40.496045-18.198223 40.496046-40.496045s-18.198223-40.496045-40.496046-40.496045H219.678547c-22.297822 0-40.496045 18.198223-40.496045 40.496045 0.19998 22.497803 18.198223 40.496045 40.496045 40.496045z m0 262.974319h464.454643c22.297822 0 40.496045-18.198223 40.496045-40.496045s-18.198223-40.496045-40.496045-40.496045H219.678547c-22.297822 0-40.496045 18.198223-40.496045 40.496045 0.19998 22.497803 18.198223 40.496045 40.496045 40.496045z m0 0M84.191778-126.600137h406.560297c19.398106 0 35.096573 15.698467 35.096573 35.096573 0 19.398106-15.698467 35.096573-35.096573 35.096572H84.191778c-7.699248 0-14.098623 6.399375-14.098623 14.098624V812.008202c0 7.699248 6.399375 14.098623 14.098623 14.098624h735.528171c7.699248 0 14.098623-6.399375 14.098623-14.098624v-323.968362c0-19.398106 15.698467-35.096573 35.096573-35.096573 19.398106 0 35.096573 15.698467 35.096573 35.096573v323.968362c0 46.195489-37.796309 83.991798-83.991798 83.991798H84.191778C37.996289 896 0 858.203691 0 812.008202v-854.616541c0-46.195489 37.996289-83.991798 84.191778-83.991798z m0 0M806.821209-79.504736c-11.398887 0-21.597891 6.799336-25.697491 17.298311-22.997754 58.494288-63.69378 71.493018-95.590665 71.493018-9.099111 0-17.298311-1.099893-24.097646-2.499756-11.598867-2.299775-23.197735 2.699736-29.397129 12.79875l-13.198712 21.597891c-6.399375 10.199004-4.999512 23.397715 2.699737 32.596817 21.39791 25.49751 30.996973 51.195 28.497217 76.892491-2.499756 24.597598-15.498486 44.195684-26.897373 56.694463-8.199199 9.099111-9.799043 22.497803-3.399668 33.196758 3.399668 5.499463 7.499268 12.298799 12.498779 20.89796 5.899424 9.799043 17.298311 14.998535 28.497217 13.198711 7.999219-1.399863 15.898447-1.999805 23.197735-1.999805 61.194024 0 87.691436 43.895713 98.090421 70.993067 4.0996 10.698955 14.598574 17.998242 25.997461 17.998242h23.697685c11.798848 0 22.297822-7.699248 26.397423-18.898154 21.19793-58.994239 72.592911-68.493311 103.589883-68.493311 7.099307 0 13.398692 0.499951 18.898155 1.099892 10.898936 1.099893 21.597891-4.0996 27.297334-13.698662 3.199688-5.199492 7.099307-12.098818 12.098819-20.497998 6.099404-10.199004 4.999512-23.197735-2.499756-32.296846-18.198223-21.597891-27.097354-44.395664-26.597403-68.09335 0.499951-29.59711 15.298506-53.994727 27.097354-68.793282 7.099307-8.899131 7.999219-21.19793 2.299775-30.996973-3.199688-5.199492-7.099307-11.798848-11.798847-20.298018-5.899424-9.999024-17.298311-15.298506-28.697198-13.398692-7.499268 1.099893-14.798555 1.799824-21.897862 1.799825-60.294112 0-87.391466-44.195684-98.390391-70.993067-4.29958-10.498975-14.298604-17.498291-25.697491-17.498292H806.921199v-0.09999zM818.620057 226.965335c-47.395372 0-85.791622-38.496241-85.791622-85.791621 0-47.395372 38.496241-85.791622 85.791622-85.791622 47.395372 0 85.791622 38.496241 85.791622 85.791622 0.09999 47.095401-38.39625 85.791622-85.791622 85.791621z m0 0"  horiz-adv-x="1024" />

    
    <glyph glyph-name="quanxianzushezhi" unicode="&#58960;" d="M630.0416 422.58432c44.672 43.01824 74.44992 114.73408 74.44992 191.22176 0 133.84192-85.62176 243.79392-189.8496 243.79392S324.7872 747.64288 324.7872 613.80608c0-76.48768 29.77792-148.20352 74.44992-191.22176-119.12192-62.1568-201.02144-205.55264-201.02144-377.65632v-81.26976c0-23.90016 14.89408-43.01824 33.50528-43.01824h573.28128c18.62144 0 33.5104 19.11808 33.5104 43.01824v81.26976c-7.45472 167.31136-93.07136 315.49952-208.47104 377.65632zM384.34304 613.80608c0 90.82368 55.83872 162.52928 126.57152 162.52928 70.72256 0 126.56128-71.7056 126.56128-162.52928 0-90.83392-55.8336-162.53952-126.56128-162.53952-70.72768 0-126.57152 71.71072-126.57152 162.53952z m383.43168-611.90656H254.0544v43.02848c0 181.65248 115.4048 325.0688 256.86528 325.0688s256.85504-148.18816 256.85504-325.0688v-43.02848zM272.6656 384.33792h7.44448c14.88896 4.78208 22.33344 19.1232 22.33344 38.2464 0 19.11296-7.4496 33.46432-22.33344 38.23616-33.50016 19.12832-55.83872 62.15168-55.83872 109.952 0 57.3696 26.0608 100.39296 67.01056 119.51104 7.44448 28.68224 18.6112 52.5824 29.77792 71.7056 0 4.78208 3.72736 9.55904 7.4496 14.34112h-7.4496c-89.33888 0-160.07168-90.82368-160.07168-205.55776 0-52.5824 14.88896-100.38272 40.94976-138.62912-81.89952-52.58752-137.73312-162.5344-137.73312-286.8224v-62.15168c0-23.90016 14.88896-43.02336 33.50016-43.02336H153.5488c0 28.68736 3.72224 57.36448 7.44448 81.26464H127.488v23.9104c-0.00512 114.72896 59.56096 210.33984 145.1776 239.01696z m547.2256 52.58752c26.0608 38.2464 40.94976 86.05184 40.94976 138.63424 0 109.952-70.72256 205.55776-160.07168 205.55776h-7.4496c3.73248-9.56416 7.4496-14.34112 7.4496-19.1232 11.17184-23.90016 22.32832-47.80032 29.77792-71.7056 37.22752-14.34112 67.00032-62.14656 67.00032-114.72896 0-47.80544-22.32832-90.82368-55.82848-109.95712-11.17184-4.78208-22.33856-19.11808-22.33856-38.24128 0-19.11296 11.17184-33.46432 22.33856-38.24128h7.43936c85.62176-28.69248 145.1776-124.288 145.1776-234.24512v-23.90016h-33.50528c3.72736-28.68736 7.44448-52.58752 7.44448-81.25952h55.83872c18.6112 0 33.50016 19.11296 33.50016 43.01312v62.14656c0.01024 114.73408-55.82336 224.68608-137.72288 282.05056zM535.81312 327.68a115.66592 115.66592 0 0 1-99.62496-57.3696 116.90496 116.90496 0 0 1-1.46432-115.67104l-82.5856-82.96448A30.17216 30.17216 0 0 1 343.04 50.92864v-1.54112a29.84448 29.84448 0 0 1 51.3536-20.35712l16.88576 17.03936 5.7088-5.7088a22.29248 22.29248 0 0 1 34.62144 3.62496 23.1424 23.1424 0 0 1-3.70176 29.23008l-4.62848 4.78208 33.08032 33.77152a113.78176 113.78176 0 0 1 59.44832-16.96256c64.31232 0 116.43904 52.13696 116.43904 116.43904 0.01024 64.29696-52.1216 116.43392-116.43392 116.43392z m0-161.93024a45.34272 45.34272 0 1 0 45.02528 45.64992v-0.31744a45.17376 45.17376 0 0 0-45.02528-45.33248z"  horiz-adv-x="1024" />

    
    <glyph glyph-name="anjian2" unicode="&#58885;" d="M739.8 748.3H609.6c-6.3 47.2-46.2 83.7-95.1 83.7s-88.8-36.5-95.1-83.7H284.2c-60.8 0-110.2-49.4-110.2-110.2v-592c0-60.8 49.4-110.2 110.2-110.2h455.6c60.8 0 110.2 49.4 110.2 110.2v592c0 60.8-49.4 110.2-110.2 110.2z m-225.3 28.6c22.8 0 41.3-18.5 41.3-41.3 0-22.8-18.5-41.3-41.3-41.3s-41.3 18.5-41.3 41.3c0 22.8 18.5 41.3 41.3 41.3z m262-730.7c0-20.3-16.5-36.7-36.7-36.7H284.2c-20.2 0-36.7 16.5-36.7 36.7v592c0 20.3 16.5 36.7 36.7 36.7H363v-63.3c0-10.1 8.3-18.4 18.4-18.4h266.3c10.1 0 18.4 8.3 18.4 18.4v63.3h73.8c20.2 0 36.7-16.5 36.7-36.7v-592zM643 388.6H385.9c-20.3 0-36.7-16.4-36.7-36.7s16.4-36.7 36.7-36.7H643c20.3 0 36.7 16.4 36.7 36.7s-16.4 36.7-36.7 36.7z m0-126.2H385.9c-20.3 0-36.7-16.4-36.7-36.7s16.4-36.7 36.7-36.7H643c20.3 0 36.7 16.4 36.7 36.7s-16.4 36.7-36.7 36.7z m0 254.8H385.9c-20.3 0-36.7-16.4-36.7-36.7 0-20.3 16.4-36.7 36.7-36.7H643c20.3 0 36.7 16.4 36.7 36.7 0.1 20.2-16.4 36.7-36.7 36.7z"  horiz-adv-x="1024" />

    
    <glyph glyph-name="anjian3" unicode="&#58890;" d="M804.075603 514.076489H608.556672c-37.039797-32.559822-14.479921-73.839596 17.759903-73.839597h195.59893c37.039797 32.559822 14.479921 73.839596-17.759903 73.839597z m36.799798 116.87936a36.479801 36.479801 0 0 1-36.319801 36.159803H537.757059a36.5598 36.5598 0 0 1-36.399801-36.399801v-0.959995a36.5598 36.5598 0 0 1 36.399801-36.239802h266.878541a36.5598 36.5598 0 0 1 36.319801 36.479801v0.879995z m47.999738 265.038551H317.038266C262.638564 896.474397 217.838809 861.594588 215.998819 807.274885v-28.159846c0-20.07989 13.199928-42.319769 33.199818-42.319768 22.559877 0 32.399823 17.199906 32.399823 38.719788v29.599838c0.959995 14.479921 21.199884 25.51986 35.599805 25.039863h580.476826c14.479921 0.559997 26.719854-18.559899 27.599849-33.039819v-772.075778c-0.879995-14.479921-13.119928-33.519817-27.599849-33.039819H317.038266c-14.479921-0.479997-34.71981 10.639942-35.599805 25.039863v39.999781c1.119994 20.879886-6.879962 38.559789-28.479844 38.799788a35.759804 35.759804 0 0 1-23.999869-8.559953 36.799799 36.799799 0 0 1-13.039929-30.239835v-39.999781c0.719996-55.199698 45.919749-91.4395 101.199447-90.879503h572.396869a100.319451 100.319451 0 0 1 101.279447 98.879459V797.114941A100.319451 100.319451 0 0 1 889.435136 895.9944z m-599.996719-258.958584L618.396618 310.077604l-60.479669-61.119665-61.599663-62.31966-328.958201 326.878213z m155.839148-502.957249a36.6558 36.6558 0 0 1 52.079715-51.599718l225.198769 227.838754a36.719799 36.719799 0 0 1-51.679718 52.079715L340.958135 689.515529a36.6558 36.6558 0 0 1-51.999715 51.679718L175.759039 626.635873 63.359654 513.116494a36.719799 36.719799 0 0 1 52.079715-51.679717l138.639242-138.319244-241.678679-245.678656a36.831799 36.831799 0 1 1 48.959732-55.039699 39.999781 39.999781 0 0 1 3.199983 3.199982l241.918677 245.838656z"  horiz-adv-x="1081" />

    
    <glyph glyph-name="anjian4" unicode="&#58930;" d="M318 422h389c17.673 0 32-14.327 32-32 0-17.673-14.327-32-32-32H318c-17.673 0-32 14.327-32 32 0 17.673 14.327 32 32 32z m0-128h389c17.673 0 32-14.327 32-32 0-17.673-14.327-32-32-32H318c-17.673 0-32 14.327-32 32 0 17.673 14.327 32 32 32z m0-128h389c17.673 0 32-14.327 32-32 0-17.673-14.327-32-32-32H318c-17.673 0-32 14.327-32 32 0 17.673 14.327 32 32 32zM826 832c38.66 0 70-31.34 70-70v-756c0-38.66-31.34-70-70-70H198c-38.66 0-70 31.34-70 70V762c0 38.66 31.34 70 70 70h628z m-301-64v-168.72l83.081 47.756 83.069-47.756V768H525z m307-726.26V726.26c0 23.053-18.851 41.74-42.105 41.74h-25.263v-208.696c-0.01-21.778-16.909-39.889-38.81-41.593h-0.548l-1.263-0.062h-4l-1.306 0.104-0.79 0.073-1.273 0.157-0.831 0.125-1.169 0.209c-0.316 0.062-0.62 0.114-0.926 0.187l-1.053 0.23-1.052 0.26-0.885 0.251-1.168 0.355-0.747 0.25-1.264 0.45-0.642 0.25-1.326 0.553-0.579 0.26a38.964 38.964 0 0 0-1.326 0.637l-0.59 0.292-1.231 0.668-0.38 0.209-88.526 50.546-88.494-50.63-0.095-0.052c-0.58-0.334-1.169-0.647-1.769-0.95l-0.094-0.052c-0.6-0.302-1.2-0.594-1.821-0.866h-0.116c-0.59-0.26-1.18-0.511-1.78-0.74l-0.22-0.084c-0.547-0.22-1.105-0.418-1.674-0.605l-0.358-0.115c-0.473-0.167-1.02-0.324-1.526-0.47l-0.547-0.146c-0.442-0.125-0.895-0.24-1.348-0.344l-0.747-0.167-1.18-0.24-0.936-0.167-1.053-0.146-1.105-0.136-0.916-0.094-1.21-0.094h-5.305l-0.642 0.053a27.042 27.042 0 0 0-1.558 0.146h-0.18a42.087 42.087 0 0 0-18.662 6.939l-0.18 0.125c-0.473 0.355-0.957 0.7-1.42 1.043l-0.653 0.512c-0.305 0.23-0.642 0.5-0.916 0.72-0.274 0.219-0.558 0.48-0.8 0.688-0.242 0.21-0.463 0.407-0.726 0.637-0.263 0.23-0.505 0.47-0.758 0.71l-0.737 0.71c-0.21 0.208-0.326 0.343-0.61 0.636-0.285 0.292-0.569 0.584-0.843 0.887l-0.42 0.49c-0.327 0.376-0.653 0.751-0.98 1.148l-0.22 0.282c-0.39 0.48-0.759 0.96-1.116 1.46v0.063a41.606 41.606 0 0 0-5.81 11.249c-0.2 0.605-0.39 1.22-0.57 1.836l-0.063 0.23c-0.147 0.574-0.284 1.075-0.41 1.617-0.042 0.167-0.116 0.324-0.116 0.49-0.105 0.46-0.19 0.919-0.284 1.378l-0.126 0.741c-0.064 0.386-0.18 0.772-0.18 1.169l-0.126 0.96-0.094 1.043c-0.032 0.376-0.032 0.824-0.085 1.127-0.052 0.303-0.052 0.605-0.052 0.918V768h-227.21C210.85 768 192 749.313 192 726.26v-684.52c0-23.053 18.851-41.74 42.105-41.74h555.79C813.149 0 832 18.687 832 41.74z"  horiz-adv-x="1024" />

    
    <glyph glyph-name="jiaoseshezhi" unicode="&#59026;" d="M736.938667 0h-34.133334a41.344 41.344 0 0 0-41.429333 41.429333v11.818667a159.872 159.872 0 0 0-44.373333 23.68l-11.818667-5.930667a38.997333 38.997333 0 0 0-31.061333-4.266666 46.549333 46.549333 0 0 0-25.173334 19.242666l-17.749333 29.610667a42.666667 42.666667 0 0 0 14.805333 57.685333l7.381334 4.266667a222.378667 222.378667 0 0 0-2.944 29.610667 111.957333 111.957333 0 0 0 1.493333 22.186666l-10.368 5.930667a41.386667 41.386667 0 0 0-14.805333 57.685333l17.749333 29.610667a41.386667 41.386667 0 0 0 57.685333 14.805333l8.874667-4.266666a164.096 164.096 0 0 0 44.373333 25.173333v14.805333a39.210667 39.210667 0 0 0 40.064 41.216h34.133334a41.344 41.344 0 0 0 41.429333-41.429333v-13.312a166.4 166.4 0 0 0 41.429333-23.68l14.805334 8.874667a43.008 43.008 0 0 0 57.685333-14.805334l17.749333-29.610666a42.666667 42.666667 0 0 0-14.805333-57.685334l-14.805333-7.381333a163.029333 163.029333 0 0 0 2.944-26.624 91.050667 91.050667 0 0 0-1.493334-19.242667l16.256-10.368a41.386667 41.386667 0 0 0 14.805334-57.685333l-17.749334-29.610667a40.576 40.576 0 0 0-25.173333-19.242666 38.4 38.4 0 0 0-31.061333 4.266666l-13.312 7.381334a140.288 140.288 0 0 0-39.936-25.173334v-15.872a40.789333 40.789333 0 0 0-41.472-43.093333z m-118.357334 112.469333l7.381334-7.381333a120.96 120.96 0 0 1 53.248-26.624l11.818666-2.944v-34.133333a11.690667 11.690667 0 0 1 11.818667-11.818667h34.133333a11.690667 11.690667 0 0 1 11.818667 11.818667v36.992l8.704 3.114666a142.378667 142.378667 0 0 1 47.36 29.610667l7.381333 7.381333 32.554667-19.242666a18.773333 18.773333 0 0 1 8.874667-1.493334 14.762667 14.762667 0 0 1 7.381333 5.930667l17.749333 29.610667a11.904 11.904 0 0 1-4.266666 16.256l-34.133334 19.242666 1.493334 10.368a147.498667 147.498667 0 0 1 2.944 23.68 220.714667 220.714667 0 0 1-2.944 31.061334l-2.944 10.368 32.554666 19.242666a11.904 11.904 0 0 1 4.266667 16.256l-17.749333 29.610667a14.762667 14.762667 0 0 1-7.381334 5.930667 9.770667 9.770667 0 0 1-8.874666-1.493334l-34.133334-19.242666-7.381333 7.381333a135.594667 135.594667 0 0 1-48.810667 28.117333l-10.368 2.944v39.936a11.690667 11.690667 0 0 1-11.818666 11.818667h-34.133334a11.690667 11.690667 0 0 1-11.818666-11.818667v-35.456l-11.818667-2.944a139.093333 139.093333 0 0 1-51.797333-29.610666l-7.381334-8.874667-26.624 16.256a11.904 11.904 0 0 1-16.256-4.266667l-17.749333-29.610666a11.904 11.904 0 0 1 4.266667-16.256l28.117333-16.256-1.493333-10.368a163.029333 163.029333 0 0 1-2.944-26.624 143.402667 143.402667 0 0 1 4.266666-34.133334l2.944-11.818666-26.624-14.805334a11.904 11.904 0 0 1-4.266666-16.256l17.749333-29.610666a14.762667 14.762667 0 0 1 7.381333-5.930667 9.770667 9.770667 0 0 1 8.874667 1.493333zM716.245333 133.162667a73.984 73.984 0 1 0 73.984 73.984 73.258667 73.258667 0 0 0-73.984-73.984z m0 118.357333a44.373333 44.373333 0 1 1 44.373334-44.373333 43.605333 43.605333 0 0 1-44.373334 44.373333zM474.496 400.128a175.829333 175.829333 0 1 0 175.829333 175.829333 175.829333 175.829333 0 0 0-175.829333-175.829333m0 401.792a225.365333 225.365333 0 0 1-110.293333-422.4 325.12 325.12 0 0 1-216.021334-305.664c0-8.533333 1.92-16.64 2.517334-25.216h0.512a24.576 24.576 0 0 1 48.853333 0h0.768c-0.682667 8.533333-2.517333 16.554667-2.517333 25.216a276.010667 276.010667 0 0 0 276.096 276.181333l25.130666 2.517334a225.365333 225.365333 0 0 1-25.045333 449.365333M734.293333 26.752h-29.653333a36.010667 36.010667 0 0 0-36.096 36.096v10.325333a139.221333 139.221333 0 0 0-38.656 20.608l-10.325333-5.162666a34.133333 34.133333 0 0 0-27.050667-3.882667 40.576 40.576 0 0 0-21.930667 16.768l-15.445333 25.6a37.162667 37.162667 0 0 0 12.8 50.261333l6.442667 3.882667a193.706667 193.706667 0 0 0-2.56 25.6 97.536 97.536 0 0 0 1.28 19.328l-9.002667 5.162667a36.053333 36.053333 0 0 0-12.8 50.261333l15.445333 25.6a36.053333 36.053333 0 0 0 50.261334 12.8l7.722666-3.882667a142.890667 142.890667 0 0 0 38.656 21.930667v12.8a34.133333 34.133333 0 0 0 34.816 36.778667h29.653334a36.010667 36.010667 0 0 0 36.096-36.096v-11.605334a144.810667 144.810667 0 0 0 36.096-20.608l12.8 7.722667a37.461333 37.461333 0 0 0 50.261333-12.8l15.445333-25.6a37.162667 37.162667 0 0 0-12.8-50.261333l-12.8-6.442667a141.994667 141.994667 0 0 0 2.56-23.210667 79.317333 79.317333 0 0 0-1.28-16.768l14.165334-9.002666a36.053333 36.053333 0 0 0 12.8-50.261334l-15.445334-25.6a35.328 35.328 0 0 0-21.930666-16.768 33.28 33.28 0 0 0-27.050667 3.882667l-11.605333 6.442667a122.197333 122.197333 0 0 0-34.816-21.930667v-14.165333a35.541333 35.541333 0 0 0-36.053334-37.802667z m-103.125333 98.133333l6.442667-6.442666a105.386667 105.386667 0 0 1 46.378666-23.210667l10.325334-2.56v-29.653333a10.154667 10.154667 0 0 1 10.325333-10.325334h29.653333a10.154667 10.154667 0 0 1 10.325334 10.325334v32.213333l7.722666 2.56a124.032 124.032 0 0 1 41.258667 25.6l6.442667 6.442667 28.373333-16.768a16.341333 16.341333 0 0 1 7.722667-1.28 12.8 12.8 0 0 1 6.442666 5.162666l15.445334 25.6a10.368 10.368 0 0 1-3.882667 14.165334l-29.653333 16.768 1.28 9.002666a128.512 128.512 0 0 1 2.56 20.608 192.256 192.256 0 0 1-2.56 27.050667l-2.56 9.002667 28.373333 16.768a10.368 10.368 0 0 1 3.882667 14.165333l-15.488 25.6a12.8 12.8 0 0 1-6.442667 5.162667 8.533333 8.533333 0 0 1-7.722667-1.28l-29.653333-16.768-6.442667 6.442666a118.101333 118.101333 0 0 1-42.666666 24.490667l-9.002667 2.56v34.816a10.154667 10.154667 0 0 1-10.325333 10.325333h-29.653334a10.154667 10.154667 0 0 1-10.325333-10.325333v-30.933333l-10.325333-2.56a121.173333 121.173333 0 0 1-45.098667-25.6l-6.442667-7.722667-23.210666 14.165333a10.368 10.368 0 0 1-14.165334-3.882666l-15.488-25.6a10.368 10.368 0 0 1 3.882667-14.165334l24.490667-14.165333-1.28-9.002667a141.952 141.952 0 0 1-2.56-23.210666 124.885333 124.885333 0 0 1 3.882666-29.653334l2.56-10.325333-23.210666-12.8a10.368 10.368 0 0 1-3.882667-14.165333l15.488-25.6a12.8 12.8 0 0 1 6.442667-5.162667 8.533333 8.533333 0 0 1 7.722666 1.28zM716.245333 142.72a64.426667 64.426667 0 1 0 64.426667 64.426667 64 64 0 0 0-64.426667-64.426667z m0 103.125333a38.656 38.656 0 1 1 38.656-38.656 37.973333 37.973333 0 0 1-38.656 38.826667z"  horiz-adv-x="1024" />

    
    <glyph glyph-name="anjian5" unicode="&#59001;" d="M896 682.667c23.467 0 42.667-19.2 42.667-42.667v-661.333C938.667-44.8 919.467-64 896-64H128c-23.467 0-42.667 19.2-42.667 42.667V789.333C85.333 812.8 104.533 832 128 832h384c14.933 0 27.733-6.4 34.133-19.2l91.734-130.133H896z m-42.667-661.334v576h-236.8c-14.933 0-27.733 6.4-34.133 19.2l-91.733 130.134h-320v-725.334h682.666zM341.333 384h213.334c23.466 0 42.666 19.2 42.666 42.667s-19.2 42.666-42.666 42.666H341.333c-23.466 0-42.666-19.2-42.666-42.666S317.867 384 341.333 384m-42.666-128c0-23.467 19.2-42.667 42.666-42.667h341.334c23.466 0 42.666 19.2 42.666 42.667s-19.2 42.667-42.666 42.667H341.333c-23.466 0-42.666-19.2-42.666-42.667"  horiz-adv-x="1024" />

    
    <glyph glyph-name="danweishezhiicon" unicode="&#59103;" d="M414.72 260.650667h104.533333v80.469333H414.72v-80.469333z m104.533333 214.613333H414.72v-80.469333h104.533333V475.264z m-156.16 0H258.133333v-80.469333h104.96V475.264z m0 135.722667H258.133333v-80.469334h104.96V610.986667z m-104.96-350.336h104.96v80.469333H258.133333v-80.469333z m261.12 350.336H414.72v-80.469334h104.533333V610.986667zM725.333333 394.794667V475.264h-51.626666v-80.469333H725.333333zM205.226667 98.090667V693.034667h363.946666v-422.741334a206.336 206.336 0 0 0 52.906667 68.266667v192h156.586667v-148.821333a192.426667 192.426667 0 0 0 51.2-16.256V584.192h-207.786667V746.666667H153.6v-648.533334H128v-53.674666h465.92a213.333333 213.333333 0 0 0-31.146667 53.674666H205.226667z m650.666666 114.986666a121.258667 121.258667 0 0 1-11.52 29.525334l22.186667 35.114666-31.573333 33.066667-34.133334-23.253333a109.013333 109.013333 0 0 1-28.16 12.245333l-8.106666 41.258667h-45.226667l-7.68-41.258667a111.829333 111.829333 0 0 1-28.586667-12.245333l-33.706666 23.253333-32-33.066667 22.613333-35.114666a122.069333 122.069333 0 0 1-11.946667-29.568l-39.68-8.533334v-46.933333l39.68-8.533333a123.477333 123.477333 0 0 1 11.946667-29.568l-22.613333-35.114667 32-33.066667 33.706666 23.253334a113.365333 113.365333 0 0 1 28.586667-12.245334l7.68-41.258666h45.226667l8.106666 41.258666a110.506667 110.506667 0 0 1 28.16 12.245334l34.133334-23.253334 31.573333 33.066667-22.186667 35.114667a122.24 122.24 0 0 1 11.52 29.568l39.68 8.533333v46.933333z m-113.92-87.381333a55.466667 55.466667 0 1 0 53.333334 55.466667 54.442667 54.442667 0 0 0-53.333334-55.466667z"  horiz-adv-x="1024" />

    
    <glyph glyph-name="bumenshezhi" unicode="&#59022;" d="M744.872274 707.788162c-3.190031 12.760125-9.570093 22.330218-19.140187 22.330218h-3.190031c-35.090343 0-60.610592 28.71028-60.610592 63.800623 0 12.760125 6.380062 25.520249 6.380062 25.520249 6.380062 12.760125 0 28.71028-9.570093 35.090343L598.130841 889.619938c-12.760125 6.380062-25.520249 3.190031-31.900311-6.380063-6.380062-6.380062-28.71028-28.71028-47.850468-28.71028S476.909657 876.859813 470.529595 883.239875c-12.760125 9.570093-19.140187 12.760125-28.71028 12.760125-3.190031 0-6.380062 0-12.760125-3.190031l-60.610592-35.090343c-9.570093-9.570093-15.950156-22.330218-9.570093-35.090343 0 0 6.380062-12.760125 6.380062-25.520249 0-35.090343-28.71028-63.800623-60.610592-63.800623h-3.190031c-9.570093 0-19.140187-9.570093-19.140187-22.330218-3.190031-15.950156-3.190031-31.900312-6.380062-47.850467 0-22.330218 3.190031-47.850467 6.380062-47.850467 3.190031-12.760125 9.570093-22.330218 19.140187-22.330219h3.190031c35.090343 0 60.610592-28.71028 60.610592-63.800623 0-12.760125-6.380062-25.520249-6.380062-25.520249-6.380062-12.760125 0-28.71028 9.570093-35.090342l57.420561-35.090343c12.760125-6.380062 25.520249-3.190031 35.090343 6.380062 6.380062 6.380062 31.900312 28.71028 47.850467 28.710281s41.470405-22.330218 51.040498-31.900312c6.380062-6.380062 12.760125-9.570093 22.330218-9.570093 3.190031 0 6.380062 0 12.760125 3.190031l60.610592 35.090342c9.570093 9.570093 15.950156 22.330218 9.570093 35.090343 0 0-6.380062 12.760125-6.380062 25.520249 0 35.090343 28.71028 63.800623 60.610592 63.800623h3.190031c9.570093 0 19.140187 9.570093 19.140187 22.330218 0 0 6.380062 28.71028 6.380062 47.850468s-3.190031 47.850467-3.190031 47.850467z m-66.990654-82.94081C639.601246 621.657321 607.700935 589.757009 607.700935 548.286604c0-12.760125 6.380062-25.520249 6.380062-28.71028l-44.660436-25.520249-15.950156 15.950156c-12.760125 12.760125-28.71028 15.950156-41.470405 15.950155s-25.520249-6.380062-38.280374-15.950155c-6.380062-3.190031-12.760125-9.570093-15.950156-15.950156l-44.660436 25.520249c3.190031 9.570093 6.380062 19.140187 6.380063 28.71028 0 41.470405-31.900312 73.370717-66.990655 76.560748 0 3.190031-3.190031 22.330218-3.190031 35.090343s3.190031 31.900312 3.190031 35.090342c31.900312 3.190031 63.800623 35.090343 63.800623 76.560748 0 12.760125-6.380062 25.520249-6.380062 28.71028l47.850467 25.52025h3.190032l15.950155-15.950156c12.760125-9.570093 25.520249-15.950156 38.280374-15.950156 12.760125 0 25.520249 6.380062 38.280374 15.950156 6.380062 3.190031 12.760125 9.570093 15.950156 15.950156h3.190031l41.470405-25.52025c0-3.190031-6.380062-15.950156-6.380062-28.71028 0-41.470405 31.900312-73.370717 66.990654-76.560748 0-3.190031 3.190031-22.330218 3.190031-35.090342v-35.090343z m-232.872274 35.090343c0-38.280374 31.900312-70.180685 66.990654-70.180686s66.990654 31.900312 66.990654 70.180686-31.900312 70.180685-66.990654 70.180685-66.990654-31.900312-66.990654-70.180685zM901.183801 210.143302h-79.750779v146.741433H189.806854v-146.741433H122.816199c-41.470405 0-73.370717-31.900312-73.370716-73.370716v-191.401869c0-41.470405 31.900312-73.370717 73.370716-73.370717h226.492212c41.470405 0 73.370717 31.900312 73.370717 73.370717v191.401869c0 41.470405-31.900312 73.370717-73.370717 73.370716H240.847352v92.510904h529.545171v-92.510904h-95.700934c-41.470405 0-73.370717-31.900312-73.370717-73.370716v-188.211838c0-41.470405 31.900312-73.370717 73.370717-73.370717h223.30218c41.470405 0 73.370717 31.900312 73.370717 73.370717v188.211838c3.190031 41.470405-28.71028 73.370717-70.180685 73.370716z m-551.87539-54.230529c9.570093 0 19.140187-9.570093 19.140187-19.140187v-191.401869c0-9.570093-9.570093-19.140187-19.140187-19.140187H122.816199c-9.570093 0-19.140187 9.570093-19.140187 19.140187v191.401869c0 9.570093 9.570093 19.140187 19.140187 19.140187h226.492212z m571.015577-207.352025c0-9.570093-9.570093-19.140187-19.140187-19.140187h-226.492212c-9.570093 0-19.140187 9.570093-19.140187 19.140187v191.401869c0 9.570093 9.570093 19.140187 19.140187 19.140187h226.492212c9.570093 0 19.140187-9.570093 19.140187-19.140187v-191.401869z"  horiz-adv-x="1024" />

    
    <glyph glyph-name="renyuanshezhi-" unicode="&#58985;" d="M456.1 267.6h60c66.4 0 128.9-25.4 175.8-71.6 46.7-45.9 72.3-106.7 72.3-171.6v-9.1c-3.4-1.5-8.3-3.4-15.8-5.3-14.3-3.8-33.4-6.7-56.8-8.9-48.5-4.4-110.8-4.8-175.5-4.8H317.2c-65.4 0-127.2 0-175.5 4.1-23.4 2-42.5 4.8-56.7 8.5-7.4 1.9-12.6 3.8-15.9 5.3v10.1c0 64.8 25.7 125.7 72.3 171.6 47 46.1 109.4 71.6 175.8 71.6h138.9M515.9 327.6H317.2C146.9 327.6 8.9 191.8 8.9 24.5v-19.4c0-68.5 138-68.5 308.3-68.5h198.7c170.3 0 308.1 2.5 308.1 68.5v19.4c0.2 167.3-137.8 303.1-308.1 303.1zM406.6 771.4c47.9 0 92.9-18.3 126.6-51.4 33.4-33 52-76.7 52-123.1s-18.5-90.1-52-123.1c-33.7-33.1-78.9-51.5-126.6-51.5-47.9 0-92.9 18.4-126.6 51.5-33.4 33-52 76.7-52 123.1S246.5 687 280 720c33.8 33.2 78.8 51.4 126.6 51.4M406.6 831.4c-131.7 0-238.5-105-238.5-234.7S274.8 362 406.6 362 645 467.1 645 596.8c0.3 129.6-106.7 234.6-238.4 234.6zM763 662.6h215c20.4 0 36.9-17.8 36.9-39.9s-16.5-39.9-36.9-39.9H763c-20.4 0-36.9 17.8-36.9 39.9 0 22 16.5 39.9 36.9 39.9zM763 463.1h215c20.4 0 36.9-17.8 36.9-39.9 0-22.1-16.5-39.9-36.9-39.9H763c-20.4 0-36.9 17.8-36.9 39.9 0 22.1 16.5 39.9 36.9 39.9zM860.7 263.8h117.4c20.4 0 36.9-17.8 36.9-39.9 0-22.1-16.5-39.9-36.9-39.9H860.7c-20.4 0-36.9 17.8-36.9 39.9-0.2 22 16.5 39.9 36.9 39.9z"  horiz-adv-x="1024" />

    
    <glyph glyph-name="zhenggaifankui" unicode="&#58891;" d="M921.6 768h-51.2v-51.2h51.2a51.2 51.2 0 0 0 51.2-51.2v-691.2a51.2 51.2 0 0 0-51.2-51.2H102.4a51.2 51.2 0 0 0-51.2 51.2V665.6a51.2 51.2 0 0 0 51.2 51.2H512V768H102.4A102.4 102.4 0 0 1 0 665.6v-691.2A102.4 102.4 0 0 1 102.4-128h819.2a102.4 102.4 0 0 1 102.4 102.4V665.6A102.4 102.4 0 0 1 921.6 768z m-102.4-460.8V768a128 128 0 1 1-256 0v-460.8l128-204.8zM614.4 768A76.8 76.8 0 1 0 768 768v-460.8h-153.6z m128-512l-51.2-76.8L640 256z m-512 204.8h179.2a25.6 25.6 0 1 1 0 51.2H230.4a25.6 25.6 0 1 1 0-51.2z m0-179.2h230.4a25.6 25.6 0 0 1 0 51.2H230.4a25.6 25.6 0 0 1 0-51.2zM204.8 128a25.6 25.6 0 0 1 25.6-25.6h307.2a25.6 25.6 0 0 1 0 51.2H230.4a25.6 25.6 0 0 1-25.6-25.6z"  horiz-adv-x="1024" />

    
    <glyph glyph-name="nenglikaifang-APIshezhi" unicode="&#59077;" d="M469.17-35.26h-0.06l-297.14 0.35c-42.76 0-77.58 34.82-77.58 77.64V719.91c0 42.82 34.82 77.64 77.64 77.64h585.42c42.82 0 77.64-34.82 77.64-77.64v-240.97c0-16.51-13.36-29.87-29.87-29.87s-29.87 13.36-29.87 29.87V719.91c0 9.68-8.22 17.91-17.91 17.91H172.02c-9.68 0-17.91-8.22-17.91-17.91v-677.18c0-9.68 8.22-17.91 17.91-17.91l297.2-0.35c16.45 0 29.81-13.42 29.81-29.92 0-16.45-13.41-29.81-29.86-29.81zM808.17-62.09H625.59c-10.67 0-20.53 5.72-25.84 14.93l-91.29 158.14a29.705 29.705 0 0 0 0 29.87l91.29 158.08a29.836 29.836 0 0 0 25.84 14.93h182.58c10.67 0 20.53-5.72 25.84-14.93l91.35-158.08a29.705 29.705 0 0 0 0-29.87l-91.35-158.14a29.845 29.845 0 0 0-25.84-14.93z m-165.31 59.73H790.9l74.14 128.27-74.08 128.21h-148.1l-74.08-128.21 74.08-128.27zM716.88 52.71c-40.31 0-73.15 32.84-73.15 73.21 0 40.31 32.84 73.15 73.15 73.15 40.37 0 73.21-32.84 73.21-73.15 0-40.37-32.84-73.21-73.21-73.21z m0 86.62c-7.41 0-13.42-6.01-13.42-13.42 0-14.82 26.89-14.82 26.89 0 0.01 7.41-6.06 13.42-13.47 13.42zM356.51 581.78l82.6-216.06h-37.8l-19.66 54.19h-90.47l-19.72-54.19h-37.8l82.6 216.06h40.25z m14.52-132.82l-33.89 94.67h-1.22l-34.18-94.67h69.29zM549.94 581.78c52.03 0 78.34-22.11 78.34-66.27 0-44.51-26.31-66.91-78.98-66.91h-53.55v-82.89h-35.41V581.78h89.6z m-54.2-102.9h51.45c15.75 0 27.24 3.03 34.47 8.46 7.29 5.77 10.91 15.17 10.91 28.17s-3.91 22.11-11.2 27.53c-7.23 5.72-18.78 8.46-34.18 8.46h-51.45v-72.62zM694.02 581.78v-216.06h-35.41V581.78h35.41z"  horiz-adv-x="1024" />

    
    <glyph glyph-name="anjian6" unicode="&#59364;" d="M174.592-125.952c-37.888 0-70.656 32.256-70.656 70.656V724.48c0 37.888 32.256 70.656 70.656 70.656h223.232l6.144 18.432C419.84 861.696 463.36 892.928 515.072 892.928c51.2 0 94.208-30.72 111.104-79.872l6.656-17.92h224.768c37.376 0 70.656-32.256 72.192-68.608v-781.824c0-37.888-32.256-70.656-70.656-70.656H174.592z m-27.648 42.496h737.28V750.592h-151.552V604.16H298.496V752.64H146.944v-836.096zM514.048 849.408c-43.008 0-75.776-32.768-75.776-75.776s32.768-75.776 75.776-75.776 75.776 32.768 75.776 75.776c0 44.032-31.744 75.776-75.776 75.776zM368.128 92.672c2.56 16.896 5.12 32.768 8.192 48.64 2.56 17.408 6.656 33.792 9.216 51.2 2.56 15.36 4.608 31.232 7.68 46.592 0.512 4.096 0.512 8.704 2.048 12.288 1.024 3.072 0 4.608-2.048 7.168-14.336 13.824-29.184 28.672-43.52 42.496-11.776 11.776-23.552 23.04-35.328 34.816-10.752 10.24-21.504 20.992-32.256 31.232l-3.584 3.584c6.656 1.024 12.288 2.048 18.432 2.56 11.776 1.536 24.064 3.584 35.84 5.12 11.776 1.536 23.04 3.072 34.816 4.608 11.776 1.536 23.552 3.584 35.84 5.12 9.216 1.024 18.432 2.56 27.648 3.584 2.56 0.512 6.144 0.512 8.704 1.024 1.024 0 2.048 1.536 2.56 2.56 12.288 24.576 24.576 49.664 36.352 74.752 11.264 23.04 22.528 46.08 34.304 69.12 0 0.512 0.512 0.512 1.024 1.536 6.656-12.8 12.8-25.6 19.456-37.888 16.896-34.304 33.792-68.096 50.688-102.4 2.56-5.12 5.12-7.168 10.752-7.68l48.128-6.656c13.824-2.048 27.648-4.096 41.472-6.656 11.776-1.536 24.064-3.072 35.84-4.608 9.728-1.536 19.968-3.072 30.72-4.608-11.776-11.264-22.528-22.016-33.792-32.768-1.024-1.024-2.048-2.048-3.072-2.56-22.528-22.016-44.544-44.032-67.072-66.048-2.56-2.56-5.12-5.12-8.704-7.68-5.12-3.584-5.12-8.192-4.096-13.312 2.56-15.872 5.12-32.256 8.704-48.128 2.56-14.848 5.12-30.208 8.192-45.568 2.56-15.36 4.608-31.232 7.68-46.592 0.512-4.096 1.536-9.216 2.56-13.824-8.704 4.096-17.408 8.704-25.088 13.312-7.68 3.584-14.336 8.192-22.016 11.776-15.872 8.704-32.256 16.896-47.616 24.576-15.872 8.704-31.744 16.896-47.616 25.088-2.048 1.024-3.584 1.024-6.656 0-26.112-13.824-52.736-27.648-78.848-41.472-17.408-9.216-34.304-18.432-51.712-26.624-5.12-3.072-9.728-5.12-13.824-7.68z"  horiz-adv-x="1024" />

    
    <glyph glyph-name="anjian7" unicode="&#59104;" d="M591.644444 236.088889H284.444444c-11.377778 0-22.755556 11.377778-22.755555 22.755555s11.377778 22.755556 22.755555 22.755556h312.888889c11.377778 0 22.755556-11.377778 22.755556-22.755556s-11.377778-22.755556-28.444445-22.755555z m153.6-136.533333H284.444444c-11.377778 0-22.755556 11.377778-22.755555 22.755555s11.377778 22.755556 22.755555 22.755556h460.8c11.377778 0 22.755556-11.377778 22.755556-22.755556s-11.377778-22.755556-22.755556-22.755555zM512 344.177778H494.933333c-5.688889 5.688889-11.377778 11.377778-22.755555 11.377778-11.377778 11.377778-28.444444 17.066667-39.822222 28.444444l-17.066667 17.066667c-5.688889 5.688889-11.377778 5.688889-17.066667 11.377777-5.688889 5.688889-11.377778 17.066667-17.066666 28.444445-11.377778 11.377778-17.066667 22.755556-22.755556 34.133333-11.377778 17.066667-17.066667 34.133333-22.755556 51.2-5.688889 11.377778-5.688889 22.755556-11.377777 39.822222 0 11.377778-5.688889 17.066667-5.688889 28.444445v22.755555 39.822223V668.444444l5.688889 11.377778 11.377777 5.688889c11.377778 0 22.755556 11.377778 28.444445 17.066667 5.688889 5.688889 11.377778 11.377778 11.377778 22.755555l5.688889 17.066667 79.644444 28.444444 39.822222 11.377778c5.688889 5.688889 17.066667 5.688889 22.755556 0l39.822222-17.066666 68.266667-28.444445h11.377777V725.333333c0-11.377778 5.688889-22.755556 11.377778-28.444444 5.688889-11.377778 17.066667-17.066667 28.444445-17.066667 0 0 5.688889 0 5.688889-5.688889 5.688889-5.688889 11.377778-11.377778 11.377777-17.066666v-51.2c0-5.688889 0-22.755556-5.688889-34.133334s-5.688889-22.755556-5.688888-34.133333c0-11.377778-5.688889-22.755556-11.377778-39.822222 0-5.688889-5.688889-11.377778-5.688889-11.377778v-5.688889c-5.688889-11.377778-11.377778-22.755556-22.755556-39.822222l-17.066666-17.066667c-5.688889-5.688889-5.688889-11.377778-11.377778-17.066666-5.688889-5.688889-11.377778-11.377778-17.066667-11.377778s-11.377778-11.377778-17.066666-17.066667c-11.377778-5.688889-17.066667-11.377778-28.444445-17.066667-5.688889 0-11.377778-5.688889-22.755555-11.377777-5.688889 0-11.377778-5.688889-17.066667-5.688889H512zM352.711111 651.377778v-56.888889c0-5.688889 0-17.066667 5.688889-22.755556 0-11.377778 5.688889-22.755556 11.377778-34.133333 5.688889-17.066667 11.377778-28.444444 17.066666-45.511111l17.066667-34.133333c5.688889-5.688889 11.377778-11.377778 22.755556-17.066667l11.377777-11.377778c5.688889-11.377778 11.377778-17.066667 17.066667-17.066667 11.377778-5.688889 22.755556-17.066667 34.133333-22.755555 5.688889-5.688889 11.377778-5.688889 22.755556-11.377778l5.688889 5.688889c11.377778 0 17.066667 5.688889 22.755555 11.377778s11.377778 11.377778 22.755556 11.377778c5.688889 5.688889 11.377778 11.377778 17.066667 11.377777 5.688889 5.688889 11.377778 5.688889 17.066666 11.377778 0 5.688889 0 11.377778 5.688889 17.066667 5.688889 5.688889 11.377778 11.377778 11.377778 17.066666 11.377778 11.377778 17.066667 22.755556 22.755556 34.133334v5.688889c0 5.688889 5.688889 5.688889 5.688888 11.377777 5.688889 11.377778 5.688889 22.755556 11.377778 34.133334 5.688889 11.377778 5.688889 22.755556 5.688889 34.133333 0 11.377778 5.688889 17.066667 5.688889 28.444445v39.822222c-11.377778 5.688889-22.755556 17.066667-34.133333 28.444444-5.688889 5.688889-17.066667 22.755556-17.066667 34.133334l-62.577778 22.755555-39.822222 17.066667c-11.377778-5.688889-22.755556-11.377778-39.822222-17.066667l-62.577778-22.755555c-5.688889-11.377778-11.377778-28.444444-17.066667-34.133334-11.377778-11.377778-22.755556-22.755556-39.822222-28.444444zM443.733333 486.4c0 5.688889 0 17.066667 5.688889 22.755556l5.688889 22.755555V554.666667v5.688889 5.688888l-22.755555 17.066667-17.066667 17.066667-11.377778 17.066666H483.555556l17.066666 34.133334 11.377778 45.511111 11.377778-17.066667c5.688889-17.066667 17.066667-34.133333 22.755555-45.511111 0 0 0-5.688889 5.688889-5.688889l22.755556-5.688889 17.066666-5.688889H625.777778l-17.066667-17.066666-34.133333-28.444445-5.688889-5.688889s-5.688889-5.688889 0-5.688888c0-5.688889 0-17.066667 5.688889-22.755556 0-5.688889 0-17.066667 5.688889-22.755556 0-5.688889 0-17.066667 5.688889-22.755555v-5.688889L568.888889 492.088889 557.511111 497.777778l-22.755555 11.377778-22.755556 11.377777h-5.688889l-34.133333-17.066666-28.444445-17.066667M790.755556-88.177778H233.244444C170.666667-88.177778 113.777778-36.977778 113.777778 31.288889V776.533333C113.777778 844.8 164.977778 896 233.244444 896H796.444444c62.577778 0 113.777778-51.2 113.777778-119.466667v-750.933333c0-62.577778-51.2-113.777778-119.466666-113.777778zM233.244444 850.488889C193.422222 850.488889 164.977778 816.355556 164.977778 782.222222v-750.933333c0-39.822222 34.133333-68.266667 68.266666-68.266667H796.444444c39.822222 0 68.266667 34.133333 68.266667 68.266667V776.533333c0 39.822222-34.133333 68.266667-68.266667 68.266667H233.244444z"  horiz-adv-x="1024" />

    
    <glyph glyph-name="anjian8" unicode="&#59128;" d="M64.45 831.55h895.11v-895.11H64.45zM665.85 558.83v41.95a7 7 0 0 1-7 7H323.19a7 7 0 0 1-7-7v-41.95a7 7 0 0 1 7-7h335.66a7 7 0 0 1 7 7zM323.19 481.9a7 7 0 0 1-7-7v-42a7 7 0 0 1 7-7H484a7 7 0 0 1 7 7v42a7 7 0 0 1-7 7z m328.67-101.4c-104.28 0-188.81-84.52-188.81-188.81s84.53-188.81 188.81-188.81 188.81 84.53 188.81 188.81S756.14 380.5 651.86 380.5z m94-282.78a133 133 0 1 0 38.9 94 132 132 0 0 0-38.93-94z m-121.94 24a28 28 0 1 1 28 28 28 28 0 0 1-28.03-27.96z m10.49 56h35a7 7 0 0 1 7 7V282.6a7 7 0 0 1-7 7h-35a7 7 0 0 1-7-7v-97.9a7 7 0 0 1 6.97-6.99zM449.06 86.8h-202.8V702.18h489.52v-300.7a7 7 0 0 1 7-7h49a7 7 0 0 1 7 7V737.15a27.94 27.94 0 0 1-28 28H211.3a27.94 27.94 0 0 1-28-28v-685.32a27.94 27.94 0 0 1 28-28h237.76a7 7 0 0 1 7 7V79.8a7 7 0 0 1-7 7z"  horiz-adv-x="1024" />

    
    <glyph glyph-name="pingjia" unicode="&#58959;" d="M820.465288 366.008276C806.370575 366.008276 795.954023 354.561839 795.954023 340.496552L795.954023 3.312184C795.954023-30.262069 769.971494-58.863445 736.426667-58.863445L206.918621-58.863445C173.373793-58.863445 134.355862-30.262069 134.355862 3.312184L134.355862 534.37977C134.355862 568.042299 173.373793 603.882299 206.918621 603.882299L492.049655 603.882299C506.173793 603.882299 517.531954 614.328276 517.531954 628.452413 517.531954 642.576552 506.173793 652.993103 492.049655 652.993103L206.918621 652.993103C139.917241 652.993103 85.333333 601.675402 85.333333 534.37977L85.333333 3.312184C85.333333-63.924599 139.917241-107.974255 206.918621-107.974255L736.426667-107.974255C803.486897-107.974255 844.976552-63.924599 844.976552 3.312184L844.976552 340.496552C844.976552 354.561839 834.56 366.008276 820.465288 366.008276L820.465288 366.008276ZM896.411955 618.771494 809.989885 705.281839C781.623908 733.794943 731.689196 733.794943 703.293793 705.281839L632.761379 622.214253 256.853333 261.695632 232.047816 45.625747 243.994482 35.209196 454.091034 63.869425 813.550345 440.954482 896.411955 508.72092C925.807812 538.205058 925.807812 589.287357 896.411955 618.771494L896.411955 618.771494ZM291.987127 95.413333 298.137011 196.548046 391.326897 103.24046 291.987127 95.413333 291.987127 95.413333ZM436.20046 129.576092 322.206897 243.716781 658.273103 578.694253 770.177471 466.554482 436.20046 129.576092 436.20046 129.576092ZM860.836779 547.415172 810.754942 497.245058 688.787127 619.389425 738.83954 669.588966C743.577011 674.355862 749.903448 676.945288 756.641839 676.945288 763.409655 676.945288 769.706667 674.355862 774.444138 669.588966L860.777933 583.137471C870.635401 573.28 870.635401 557.272643 860.836779 547.415172L860.836779 547.415172Z"  horiz-adv-x="1024" />

    
    <glyph glyph-name="dangan" unicode="&#58998;" d="M784.945799 586.501571 239.054201 586.501571C228.293106 586.501571 219.578959 577.495003 219.578959 566.441487s8.714147-20.001599 19.475241-20.001599l545.891599 0C795.706894 546.439888 804.421041 555.446456 804.421041 566.441487S795.706894 586.501571 784.945799 586.501571zM804.421041 687.971672 219.578959 687.971672c-10.819579 0-19.533726-8.948084-19.533726-20.001599C200.045234 656.916557 208.759381 648.026958 219.578959 648.026958l584.842081 0c10.819579 0 19.533726 8.8896 19.533726 20.001599C823.954766 679.023588 815.240619 687.971672 804.421041 687.971672zM969.580444 479.300017 892.673711 766.7499c-0.175453 0.70181-0.350905 1.286653-0.643326 1.988463-12.106231 31.639957-29.768462 52.694272-76.731281 52.694272L207.414244 819.736593c-38.950483 0-61.817808-15.732252-76.555828-52.40185C130.565995 766.515963 130.273574 765.697184 130.098121 764.93689L53.834714 471.404649C47.927809 465.614712 44.126335 458.304186 44.126335 449.823976l0-459.978297c0-21.990062 25.674567-43.278314 47.079788-43.278314l857.846365 0c21.40522 0 30.821178 21.288252 30.821178 43.278314L979.873665 449.823976C979.873665 462.632018 976.540065 472.925238 969.580444 479.300017zM745.936832 154.537209 278.063168 154.537209l0 116.968416 467.873665 0L745.936832 154.537209zM687.452624 446.95825c0 0-41.348335-0.526358-61.759324-0.526358L408.073562 446.431892C387.662574 446.431892 336.547376 446.95825 336.547376 446.95825L102.610543 446.95825l64.800503 306.340282c7.953852 19.475241 15.498315 26.376378 40.061683 26.376378l607.943343 1.754526c27.019704 0 32.458736-6.901137 40.003198-26.317894L921.389457 446.95825 687.452624 446.95825z"  horiz-adv-x="1024" />

    
    <glyph glyph-name="tongguo" unicode="&#58988;" d="M928 201.6l-188.8-224c-6.4-6.4-16-12.8-25.6-12.8-6.4 0-12.8 3.2-19.2 6.4l-128 99.2c-16 9.6-16 32-6.4 44.8 9.6 16 32 16 44.8 6.4l102.4-80 169.6 198.4c12.8 12.8 32 16 48 3.2C937.6 236.8 940.8 217.6 928 201.6L928 201.6zM649.6 256 268.8 256c-19.2 0-32 16-32 32 0 19.2 16 32 32 32l380.8 0c19.2 0 32-16 32-32C681.6 268.8 668.8 256 649.6 256L649.6 256zM649.6 604.8 268.8 604.8c-19.2 0-32 16-32 32 0 19.2 16 32 32 32l380.8 0c19.2 0 32-16 32-32C681.6 620.8 668.8 604.8 649.6 604.8L649.6 604.8zM649.6 432 268.8 432c-19.2 0-32 16-32 32 0 19.2 16 32 32 32l380.8 0c19.2 0 32-16 32-32C681.6 444.8 668.8 432 649.6 432L649.6 432zM777.6 716.8c0 25.6-19.2 44.8-44.8 44.8L198.4 761.6c-25.6 0-44.8-19.2-44.8-44.8L153.6 96c0-25.6 19.2-44.8 44.8-44.8l288 0 0-60.8-288 0c-60.8 0-108.8 48-108.8 108.8L89.6 716.8c0 60.8 48 108.8 108.8 108.8l531.2 0c60.8 0 108.8-48 108.8-108.8l0-403.2-60.8 0L777.6 716.8 777.6 716.8z"  horiz-adv-x="1024" />

    
    <glyph glyph-name="weitongguo" unicode="&#58963;" d="M742.4 486.4h-460.8c-12.8 0-25.6-12.8-25.6-25.6s12.8-25.6 25.6-25.6h460.8c12.8 0 25.6 12.8 25.6 25.6s-12.8 25.6-25.6 25.6zM435.2 332.8h-153.6c-12.8 0-25.6-10.24-25.6-25.6 0-12.8 12.8-25.6 25.6-25.6h153.6c15.36 0 25.6 12.8 25.6 25.6 0 15.36-10.24 25.6-25.6 25.6zM435.2 179.2h-153.6c-12.8 0-25.6-10.24-25.6-25.6 0-12.8 12.8-25.6 25.6-25.6h153.6c12.8 0 25.6 12.8 25.6 25.6 0 15.36-12.8 25.6-25.6 25.6zM742.4 640h-460.8c-12.8 0-25.6-12.8-25.6-25.6s12.8-25.6 25.6-25.6h460.8c12.8 0 25.6 12.8 25.6 25.6s-12.8 25.6-25.6 25.6zM896 844.8h-768c-12.8 0-25.6-12.8-25.6-25.6v-870.4c0-12.8 12.8-25.6 25.6-25.6h384c15.36 0 25.6 10.24 25.6 25.6s-10.24 25.6-25.6 25.6h-358.4v819.2h716.8v-384c0-15.36 10.24-25.6 25.6-25.6s25.6 10.24 25.6 25.6v409.6c0 12.8-12.8 25.6-25.6 25.6zM768 332.8c-112.64 0-204.8-92.16-204.8-204.8s92.16-204.8 204.8-204.8 204.8 92.16 204.8 204.8-92.16 204.8-204.8 204.8z m0-358.4c-84.48 0-153.6 69.12-153.6 153.6s69.12 153.6 153.6 153.6 153.6-69.12 153.6-153.6-69.12-153.6-153.6-153.6zM839.68 199.68c-10.24 10.24-25.6 10.24-35.84 0l-35.84-35.84-35.84 35.84c-10.24 10.24-25.6 10.24-35.84 0s-10.24-25.6 0-35.84l35.84-35.84-35.84-35.84c-10.24-10.24-10.24-25.6 0-35.84s25.6-10.24 35.84 0l35.84 35.84 35.84-35.84c10.24-10.24 25.6-10.24 35.84 0s10.24 25.6 0 35.84l-35.84 35.84 35.84 35.84c10.24 10.24 10.24 25.6 0 35.84z"  horiz-adv-x="1024" />

    
    <glyph glyph-name="jiancha" unicode="&#58921;" d="M941.860264 25.82005l69.266237-67.437666a41.691399 41.691399 0 0 0 0-60.342814 44.690254 44.690254 0 0 0-62.025099 0l-69.266236 67.437666c-84.991939-52.077677-196.681002-33.64569-259.291244 42.788541a188.196437 188.196437 0 0 0 14.701704 255.487817 201.362142 201.362142 0 0 0 262.58267 14.33599 188.489008 188.489008 0 0 0 44.031968-252.342677zM638.756481 893.732573c6.802281-2.121141 13.31199-5.851424 18.724558-11.263992l257.316388-255.780389a45.421682 45.421682 0 0 0 9.362279-13.385133 20.479985 20.479985 0 0 0 4.095997-12.287991v-237.787259h-87.771366V536.868828H694.857012c-34.962261 0-68.461665 13.458276-93.183933 37.522259A126.244481 126.244481 0 0 0 563.199963 665.015022V810.642347H160.914536v-853.283962h444.34254V-127.999269H138.825409a66.559952 66.559952 0 0 0-46.518824 18.724558 62.975955 62.975955 0 0 0-19.163414 45.34854V831.926903c0 16.969131 6.875424 33.279976 19.236557 45.348539A66.706238 66.706238 0 0 0 138.825409 896h490.056793c3.583997 0 6.875424-0.804571 9.874279-2.194284z m12.141706-126.975909v-101.741642c0-11.337135 4.534854-22.235413 12.79999-30.281121 8.265137-8.045709 19.455986-12.50742 31.158835-12.50742h100.937071L650.825044 766.756664z m123.903911-745.398325c60.4891 0 109.567922 47.762252 109.567922 106.64221 0 58.879958-49.005679 106.64221-109.567922 106.642209s-109.714207-47.762252-109.714207-106.642209c0-58.879958 49.151965-106.64221 109.714207-106.64221zM204.727077 426.642621c0 23.551983 19.529129 42.642255 43.739397 42.715398h482.523084a43.154255 43.154255 0 0 0 43.81254-42.715398 43.30054 43.30054 0 0 0-43.81254-42.642255H248.466474a44.32454 44.32454 0 0 0-31.012549 12.434277 41.98397 41.98397 0 0 0-12.726848 30.207978z m0-170.642164c0 23.551983 19.675415 42.642255 43.958825 42.642255h218.989558c24.283411 0 43.958826-18.943986 43.958826-42.642255a43.30054 43.30054 0 0 0-43.885683-42.642255H248.685902a44.470825 44.470825 0 0 0-31.085692 12.434277 42.057113 42.057113 0 0 0-12.873133 30.207978z m0-170.642164c0 23.551983 19.675415 42.642255 43.958825 42.642256h218.989558c24.283411 0 43.958826-18.943986 43.958826-42.642256a43.30054 43.30054 0 0 0-43.885683-42.715398H248.685902a44.470825 44.470825 0 0 0-31.085692 12.434277 42.057113 42.057113 0 0 0-12.873133 30.281121z"  horiz-adv-x="1024" />

    
    <glyph glyph-name="zhiliangpingcha" unicode="&#58893;" d="M555.426-45.38c-20.19-10.952-34.86-15.827-47.55-15.827-12.777 0-27.024 4.83-47.548 16.184-342.44 189.195-341.304 292.82-337.097 678.4 0.423 38.333 0.868 79.249 1.002 123.08C177.281 772.173 234.001 787 293.171 800.578c64.623 14.848 136.503 24.443 213.593 28.561 146.677-16.273 259.183-37.732 381.04-72.882 0.222-49.53 0.867-95.277 1.424-137.661 5.32-387.562 6.611-479.655-333.802-663.975M956.01 619.508c-0.667 49.197-1.402 102.868-1.513 161.815-0.023 14.714-9.706 27.692-23.82 31.9C794.62 854.049 673.165 877.979 511.395 895.81c-1.78 0.2-3.584 0.223-5.365 0.156-82.009-4.23-158.653-14.425-227.818-30.297-69.587-15.983-135.947-33.658-197.164-52.513-13.98-4.297-23.552-17.252-23.552-31.9 0-53.048-0.557-101.888-1.024-147.144-4.23-385.024-5.81-529.097 371.556-737.592 31.12-17.185 55.007-24.51 79.85-24.51 24.398 0 48.885 7.369 79.36 23.864 375.92 203.598 374.272 324.163 368.773 723.634m-214.02-14.865l-301.1-302.236L293.076 450.73c-17.341 17.386-45.545 17.452-62.976 0.111-17.408-17.363-17.452-45.545-0.111-62.976l179.356-179.979a44.602 44.602 0 0 1 31.543-13.09 44.491 44.491 0 0 1 31.544 13.112l332.644 333.913c17.341 17.408 17.297 45.613-0.133 62.954-17.386 17.341-45.613 17.32-62.954-0.133"  horiz-adv-x="1024" />

    
    <glyph glyph-name="anjian" unicode="&#58880;" d="M188.928-104.448c-36.352 0-67.584 30.72-67.584 67.584V706.56c0 36.352 30.72 67.584 67.584 67.584h212.992l5.632 17.408c15.36 46.08 56.832 75.776 105.984 75.776 48.64 0 89.6-29.184 105.984-76.288l6.144-16.896H839.68c35.84 0 67.584-30.72 68.608-65.536v-745.472c0-36.352-30.72-67.584-67.584-67.584H188.928z m-26.624 40.448H865.28V731.136h-144.384v-139.776H306.688V733.184H162.304v-797.184z m350.208 889.344c-40.96 0-72.192-31.232-72.192-72.192S471.552 680.96 512.512 680.96s72.192 31.232 72.192 72.192c0 41.984-30.208 72.192-72.192 72.192zM373.248 103.936c2.56 15.872 5.12 31.232 7.68 46.592 2.56 16.384 6.144 32.256 8.704 48.64 2.56 14.848 4.608 29.696 7.168 44.544 0.512 4.096 0.512 8.192 2.048 11.776 1.024 3.072 0 4.608-2.048 6.656-13.824 13.312-27.648 27.136-41.472 40.448-11.264 11.264-22.528 22.016-33.792 33.28-10.24 9.728-20.48 19.968-30.72 29.696l-3.584 3.584c6.144 1.024 11.776 2.048 17.408 2.56 11.264 1.536 23.04 3.584 34.304 5.12 11.264 1.536 22.016 3.072 33.28 4.608 11.264 1.536 22.528 3.584 34.304 5.12 8.704 1.024 17.408 2.56 26.112 3.584 2.56 0.512 5.632 0.512 8.192 1.024 1.024 0 2.048 1.536 2.56 2.56 11.776 23.552 23.552 47.104 34.816 71.168 10.752 22.016 21.504 44.032 32.768 66.048 0 0.512 0.512 0.512 1.024 1.536 6.144-12.288 12.288-24.576 18.432-36.352 15.872-32.768 32.256-65.024 48.128-97.792 2.56-5.12 5.12-6.656 10.24-7.168l46.08-6.144c13.312-2.048 26.112-4.096 39.424-6.144 11.264-1.536 23.04-3.072 34.304-4.608 9.216-1.536 18.944-3.072 29.184-4.608-11.264-10.752-21.504-20.992-32.256-31.232-1.024-1.024-2.048-2.048-3.072-2.56-21.504-20.992-42.496-41.984-64-62.976-2.56-2.56-5.12-5.12-8.192-7.168-5.12-3.584-5.12-7.68-4.096-12.8 2.56-15.36 5.12-30.72 8.192-46.08 2.56-14.336 5.12-28.672 7.68-43.52 2.56-14.848 4.608-29.696 7.168-44.544 0.512-4.096 1.536-8.704 2.56-13.312-8.192 4.096-16.384 8.192-24.064 12.8-7.168 3.584-13.824 7.68-20.992 11.264-15.36 8.192-30.72 15.872-45.568 23.552-15.36 8.192-30.208 15.872-45.568 24.064-2.048 1.024-3.584 1.024-6.144 0-25.088-13.312-50.176-26.112-75.264-39.424-16.384-8.704-32.768-17.408-49.152-25.6-3.584-3.584-7.68-5.632-11.776-8.192z"  horiz-adv-x="1024" />

    
    <glyph glyph-name="guidang" unicode="&#58920;" d="M109.738667 397.710222h492.771555c52.110222 0 90.510222 27.420444 102.4 74.069334 0.910222 4.551111 2.730667 10.979556 4.551111 18.261333a614.4 614.4 0 0 0 14.677334 53.987555h190.122666c20.138667 0 36.579556-16.497778 36.579556-36.579555v-2.787556l-13.653333-171.861333c0-20.138667 16.384-36.579556 36.522666-36.579556 20.138667 0 36.579556 16.497778 36.579556 36.579556v0.910222L1024 508.359111c0 60.302222-49.379556 109.681778-109.738667 109.681778h-21.048889V793.6c0 56.661333-45.681778 102.4-102.4 102.4H232.277333c-56.661333 0-102.4-45.738667-102.4-102.4v-322.730667H109.795556C49.379556 470.869333 0 421.489778 0 358.4l36.579556-335.530667c0-60.302222 49.379556-109.738667 109.681777-109.738666h532.138667a36.807111 36.807111 0 0 1 33.848889 36.579555 36.807111 36.807111 0 0 1-33.848889 36.579556H146.261333c-20.081778 0-36.522667 16.497778-36.522666 39.310222l-36.579556 335.530667c0 20.138667 16.440889 36.579556 36.579556 36.579555zM202.979556 793.6c0 16.497778 13.653333 30.151111 30.151111 30.151111h558.648889c16.497778 0 30.151111-13.653333 30.151111-30.151111v-176.469333h-118.897778c-0.853333 0-1.763556-0.910222-2.673778-0.910223a28.16 28.16 0 0 1-11.946667-2.730666c-0.853333 0-0.853333-0.910222-1.763555-0.910222a37.774222 37.774222 0 0 1-10.069333-6.428445c-19.228444-18.261333-28.330667-54.840889-39.310223-100.522667-1.820444-6.428444-2.730667-11.946667-3.697777-16.497777-1.820444-6.371556-4.551111-19.171556-31.061334-19.171556H202.979556V793.6z m706.616888-588.515556l111.559112-103.310222a36.408889 36.408889 0 0 0 0-52.110222 36.124444 36.124444 0 0 0-25.6-10.979556 36.124444 36.124444 0 0 0-25.6 10.979556l-47.559112 48.469333v-182.840889c0-20.138667-16.440889-36.579556-36.579555-36.579555a36.693333 36.693333 0 0 0-36.522667 36.579555v181.930667l-47.559111-48.469333a34.588444 34.588444 0 0 0-25.6-10.979556 36.124444 36.124444 0 0 0-25.6 10.979556 36.408889 36.408889 0 0 0 0 52.110222l110.592 102.4a37.546667 37.546667 0 0 0 25.6 10.069333c8.248889 0 16.497778-2.730667 22.869333-8.248889z"  horiz-adv-x="1080" />

    
    <glyph glyph-name="pipei" unicode="&#59139;" d="M487.83007804 560.8798829899999c-51.63574184-57.1289066-86.79199253-98.87695313-107.66601579-123.04687509l-15.38085929-18.67675798-2.19726529-4.39453135-1.09863264-2.19726528-2.19726605-4.39453133c-20.87402326-27.46582066-45.04394523-59.32617188-52.73437526-95.58105443-8.78906267-43.94531258 7.69043003-85.69335912 48.33984392-124.1455085 35.15624992-34.05761727 72.50976588-51.63574184 109.86328108-51.63574184 6.59179662 0 12.08496059 0 18.67675799 1.09863263 71.41113247 10.98632796 112.06054713 82.39746119 113.15917977 85.6933599 6.59179662 12.08496059 2.19726528 27.46582066-8.78906267 34.0576165-12.08496059 6.59179662-27.46582066 2.19726528-34.05761728-8.7890619 0 0-30.76171857-52.73437525-76.90429645-59.32617188-26.36718725-4.39453133-54.93164054 7.69043003-84.59472646 37.35351519-58.22753924 56.03027318-35.15624992 92.2851565 8.78906266 150.51269575l4.39453056 5.49316398c2.19726528 2.19726528 19.77539063 24.16992196 125.24414114 143.92089835 7.69043003 8.78906267 18.67675799 17.57812535 28.5644533 21.97265591 18.67675799 9.88769531 41.74804653 6.59179662 58.22753847-7.69042926 45.04394523-36.25488256 30.76171857-56.03027318 17.57812533-73.60839853l-4.39453133-5.49316397c-7.69043003-12.08496059-5.49316398-27.46582066 6.59179662-36.25488333 12.08496059-7.69043003 27.46582066-5.49316398 35.15624991 6.59179739l2.19726605 4.39453133C687.78125035 452.11523455 695.4716796 471.89062518 698.7675783 493.86328107c1.09863264 31.86035122-15.38085929 60.42480451-50.5371092 86.79199255-70.31249982 53.8330079-134.03320304 9.88769531-160.40039106-19.77539063z m-86.79199176-177.97851563c2.19726528 2.19726528 2.19726528 2.19726528 0 1e-8zM609.77832048 654.26367213c12.08496059-6.59179662 27.46582066-2.19726528 34.05761727 9.88769531v1.09863264s31.86035122 53.8330079 78.00292909 60.42480452c26.36718725 4.39453133 53.8330079-7.69043003 84.59472726-35.15624991 59.32617188-56.03027318 34.05761727-95.58105443-12.08496137-156.00585972l-2.19726529-2.19726528c-2.19726528-2.19726528-19.77539063-21.9726559-126.34277377-142.82226571-7.69043003-8.78906267-17.57812535-15.38085929-27.46581989-20.87402327-19.77539063-10.98632796-43.94531258-7.69043003-59.32617187 7.69042926-14.28222665 7.69043003-24.16992196 20.87402326-27.46582066 36.25488332 0 13.183594 6.59179662 25.2685546 15.38085929 34.05761728 2.19726528 2.19726528 4.39453133 5.49316398 5.49316397 7.69042925 7.69043003 12.08496059 5.49316398 27.46582066-6.59179661 35.15624993-12.08496059 7.69043003-27.46582066 5.49316398-36.25488255-6.59179662l-4.39453135-5.49316398c-18.67675799-19.77539063-27.46582066-45.04394523-26.367188-72.50976589 2.19726528-25.2685546 19.77539063-48.33984393 47.24121127-71.41113247 18.67675799-15.38085929 42.84667994-24.16992196 65.91796849-24.16992196 36.25488256 1.09863264 70.31249982 18.67675799 93.38378916 46.14257787 50.53710921 58.22753924 87.89062518 98.87695313 108.76464843 121.94824245l15.38085928 18.67675798 2.19726606 4.39453134 1.09863264 2.19726528 1.09863265 1.09863263c40.64941389 52.73437525 103.27148446 134.03320304 6.59179661 224.12109428-40.64941389 39.55078125-84.59472648 54.93164054-128.54003906 48.33984315-72.50976588-13.183594-114.25781242-85.69335912-115.35644505-88.98925781-6.59179662-12.08496059-2.19726528-26.36718725 9.88769531-32.95898387 2.19726528 1.09863264 3.29589869 0 3.29589869 0zM797.64453143 532.31542969c-2.19726528 0-2.19726528-2.19726528 0 0zM843.78710929 386.19726528c-14.28222665 0-25.2685546-10.98632796-25.2685546-25.2685546v-309.81445261c0-5.49316398-3.29589869-8.78906267-8.78906267-8.78906267H190.10058602c-5.49316398 0-8.78906267 3.29589869-8.78906267 8.78906267V670.74316406c0 5.49316398 4.39453133 8.78906267 8.78906267 8.78906267h309.81445339c14.28222665 0 25.2685546 10.98632796 25.26855459 25.2685546 0 13.183594-12.08496059 25.2685546-25.26855459 25.26855461H190.10058602c-32.95898463 0-60.42480451-27.46582066-60.42480452-60.42480451v-619.62890678c0-32.95898463 27.46582066-60.42480451 60.42480452-60.42480451h619.62890599c32.95898463 0 60.42480451 27.46582066 60.42480452 60.42480451V359.83007804c0 14.28222665-12.08496059 26.36718725-26.36718724 26.36718724z"  horiz-adv-x="1024" />

    
    <glyph glyph-name="guihuan" unicode="&#58962;" d="M798.213 781.679C786.412 810 759.271 810 759.271 810H243.584c-37.762-9.44-48.383-55.463-48.383-55.463L89.023 306.114v-280.855c0-54.283 75.496-68.715 75.496-68.715h706.857c56.643 0 69.624 66.355 69.624 66.355V303.754S810.013 753.357 798.213 781.679z m-546.369-40.123c3.54 15.341 24.781 15.341 24.781 15.341h453.537c18.094 0 24.388-24.388 24.388-24.388l125.873-404.368H665.652c-14.161 0-16.521-22.028-16.521-22.028s0.787-71.59 0-86.538c-0.787-14.947-25.961-25.175-25.961-25.175s-199.037-0.787-218.705 0c-19.668 0.787-24.388 32.255-24.388 32.255s3.147 59.003 0 83.391c-3.147 24.388-27.535 17.308-27.535 17.308H149.179c0 0.001 99.125 398.862 102.665 414.202z m635.66-678.535s-3.147-53.496-46.416-54.283c-43.269-0.787-640.38 0-640.38 0s-56.643 4.72-57.43 54.283c-0.787 49.563 0 213.198 0 213.198h184.876v-91.258s14.161-40.122 39.335-40.122h289.508s44.056 11.014 44.056 43.269v88.111h186.45v-213.198zM490.639 532.365c81.735 0 131.384-5.506 193.023-62.791 0-0.089-9.119 127.092-193.023 127.092v50.446l-179.345-84.284 179.345-87.392v56.929z"  horiz-adv-x="1024" />

    
    <glyph glyph-name="dairuku" unicode="&#58886;" d="M754.726-52.907c-99.76 0-218.453 93.426-218.453 218.454 0 95.828 92.6 218.089 218.453 218.453 144.592 0.413 214.91-123.038 217.87-217.191a213.21 213.21 0 0 0-217.87-219.716z m0 388.362a175.467 175.467 0 0 1-169.908-169.908 167.48 167.48 0 0 1 169.908-169.908c97.503 0 177.19 62.137 174.593 168.694-2.015 80.682-49.856 173.234-174.593 171.122z m72.818-242.726h-97.09A30.414 30.414 0 0 0 706.18 117v97.09a30.414 30.414 0 0 0 24.272 24.273 24.273 24.273 0 0 0 23.472-19.2l0.8-77.89h72.819a30.39 30.39 0 0 0 24.272-24.273 30.414 30.414 0 0 0-24.272-24.272zM196.456 117a24.273 24.273 0 1 0 0 48.546h291.271l0.51-11.287c10.17 0-0.51 0.243-0.51-12.986a131.072 131.072 0 0 1 0-24.273h-291.27z m242.726 582.543a24.515 24.515 0 0 0 24.273-24.273v-364.089l71.555 95.052a23.884 23.884 0 0 0 33.982 0 24.273 24.273 0 0 0 0-34.128L451.027 228.898a27.5 27.5 0 0 0-36.409 0L296.63 372.106a24.273 24.273 0 0 0 0 34.152 23.787 23.787 0 0 0 33.982 0l84.299-95.076v364.09a24.54 24.54 0 0 0 24.272 24.272z m315.544 0a49.492 49.492 0 0 1-48.545 48.545H147.91a50.536 50.536 0 0 1-45.098-50.973l-3.447-580.115 3.447-5.51a42.04 42.04 0 0 1 45.098-43.035H512v-48.545H147.911a90.61 90.61 0 0 0-97.09 87.94V700.806a95.658 95.658 0 0 0 95.488 95.828h572.833c52.842 0 84.13-44.176 84.13-97.09v-242.726h-48.546V699.544z"  horiz-adv-x="1024" />

    
    <glyph glyph-name="yiruku" unicode="&#58887;" d="M806.605-25.6h-595.2c-56.448 0-96.205 45.76-96.205 102.208V691.405A102.208 102.208 0 0 0 217.408 793.6h589.197A102.22 102.22 0 0 0 908.8 691.405v-614.797A102.22 102.22 0 0 0 806.605-25.6z m54.105 723.02a46.08 46.08 0 0 1-48.102 48.103H211.392a46.08 46.08 0 0 1-48.102-48.102v-626.816a46.08 46.08 0 0 1 48.102-48.103h601.216a46.08 46.08 0 0 1 48.102 48.103V697.408zM716.416 70.593H307.584a24.051 24.051 0 0 0 0 48.102h408.832a24.051 24.051 0 0 0 0-48.102zM543.078 186.88a29.517 29.517 0 0 0-38.873 0L377.907 339.648a25.818 25.818 0 0 0 0 36.416 25.523 25.523 0 0 0 36.275 0l85.76-113.088v410.38c0 14.08 9.946 18.049 24.052 18.049s24.038-3.955 24.038-18.048v-410.381l84.98 113.088a25.702 25.702 0 1 0 36.3-36.416z m0 0"  horiz-adv-x="1024" />

    
    <glyph glyph-name="yuruku" unicode="&#58889;" d="M772.7-56.4c-0.6 0-1.3-0.1-1.9-0.1h1c0.2 0 0.5 0.1 0.9 0.1zM648.3 587.2H247.2c-17.4 0-31.5 14.1-31.5 31.5s14.1 31.5 31.5 31.5h401.1c17.4 0 31.5-14.1 31.5-31.5s-14.1-31.5-31.5-31.5zM480.5 419.4H247.2c-17.4 0-31.5 14.1-31.5 31.5s14.1 31.5 31.5 31.5h233.3c17.4 0 31.5-14.1 31.5-31.5s-14.1-31.5-31.5-31.5zM354.7 251.6H247.2c-17.4 0-31.5 14.1-31.5 31.5s14.1 31.5 31.5 31.5h107.5c17.4 0 31.5-14.1 31.5-31.5-0.1-17.4-14.2-31.5-31.5-31.5zM771.7 761.5l0.7-0.7v-292.9h-1.7c-161.9 0-293.6-131.7-293.6-293.6 0-62.2 19.5-120 52.6-167.5l-402.2 0.5 0.7 754.4h643.5m0 62.8H128.1c-35.2 0-63.6-28.5-63.6-63.6v-753.7c0-35.2 28.5-63.6 63.6-63.6h642.6C643.3-56.5 540 46.8 540 174.3S643.3 405 770.7 405c22.5 0 44.1-3.4 64.6-9.3V760.8c0 35.2-28.5 63.7-63.6 63.7zM770.7 300.1c69.4 0 125.8-56.5 125.8-125.8S840 48.5 770.7 48.5 644.9 105 644.9 174.3s56.4 125.8 125.8 125.8m0 62.9C666.5 363 582 278.5 582 174.3c0-104.3 84.5-188.8 188.8-188.8 104.3 0 188.8 84.5 188.8 188.8C959.5 278.5 875 363 770.7 363zM770.7 142.8c-17.4 0-31.5 14.1-31.5 31.5v61.9c0 17.4 14.1 31.5 31.5 31.5s31.5-14.1 31.5-31.5v-61.9c0-17.4-14.1-31.5-31.5-31.5zM836 142.7h-65.3c-17.4 0-31.5 14.1-31.5 31.5s14.1 31.5 31.5 31.5H836c17.4 0 31.5-14.1 31.5-31.5-0.1-17.4-14.1-31.5-31.5-31.5z"  horiz-adv-x="1024" />

    
    <glyph glyph-name="ren" unicode="&#58881;" d="M821.86052 507.124048c0-4.800938 0.10002-9.601875 0-14.402813-0.200039-7.201407-1.000195-14.302794-1.700332-21.5042-1.000195-9.701895-2.700527-19.30377-4.600899-28.805627-2.10041-10.402032-4.900957-20.504005-8.201602-30.505958-7.601485-23.504591-17.903497-45.808947-30.806017-66.913069-6.301231-10.201993-13.102559-20.103927-20.504004-29.505763-10.201993-13.00254-21.204141-25.204923-33.406525-36.40711-13.402618-12.402422-27.805431-23.60461-43.10842-33.506545-17.003321-10.902129-34.806798-20.203946-53.610471-27.705411-12.502442-5.000977-25.204923-9.201797-38.207462-12.502442-13.302598-3.400664-26.805235-5.701113-40.507912-7.501465-18.203555-2.400469-36.407111-2.20043-54.610666-1.600312-8.901739 0.300059-17.803477 1.600313-26.705216 2.800547-11.702286 1.600313-23.304552 4.000781-34.706778 7.101387-14.202774 3.800742-28.105489 8.60168-41.608127 14.402813-18.603634 8.001563-36.207072 17.603438-52.910334 28.905645-20.804063 14.102754-39.407697 30.505958-56.310998 49.009573-15.202969 16.703262-28.405548 35.006837-39.607736 54.610666-11.702286 20.303966-20.904083 41.708146-27.705411 64.112522-4.100801 13.602657-7.301426 27.505372-9.401837 41.508107-0.900176 6.001172-1.500293 12.002344-2.200429 18.103536-0.900176 8.7017-1.300254 17.503419-1.600313 26.305137-0.200039 6.50127 0.200039 13.102559 0.500098 19.603829 0.300059 5.901153 0.800156 11.802305 1.300254 17.703458 0.600117 5.901153 1.300254 11.702286 2.300449 17.603438 3.800742 22.304356 10.001954 43.908576 18.403594 64.912678 5.401055 13.502637 11.902325 26.505177 19.203751 39.107638 8.60168 14.702872 18.203555 28.605587 29.005665 41.708147 9.001758 11.002149 18.703653 21.5042 29.205705 31.106075 20.303966 18.503614 42.408283 34.40672 66.813049 47.209221 17.703458 9.301817 36.207072 16.803282 55.310803 22.704434 12.8025 3.900762 25.90506 6.901348 39.207658 9.101778 9.401836 1.500293 19.003712 2.500488 28.505567 3.300644 11.802305 1.000195 23.60461 0.600117 35.506935 0.500098 4.600899 0 9.201797-0.700137 13.802696-1.200234 3.800742-0.400078 7.601485-0.900176 11.402227-1.200235 10.201993-1.000195 20.203946-3.100606 30.2059-5.301035 10.502051-2.300449 20.704044-5.301035 30.806016-8.801719 13.202579-4.500879 26.005079-9.901934 38.407502-16.103145 14.602852-7.301426 28.505567-15.803087 41.808165-25.304943 7.901543-5.701113 15.603047-11.702286 22.904474-18.103536 9.701895-8.401641 18.803673-17.403399 27.405353-26.805235 10.302012-11.202188 19.503809-23.304552 28.005469-35.907013a312.661067 312.661067 0 0 0 26.105099-47.40926c6.701309-15.202969 12.202383-30.906036 16.303184-47.009181 2.900567-11.102168 5.000977-22.404376 6.701309-33.806603 2.20043-14.502833 3.400664-29.005665 2.900567-43.608517z m-62.51221-0.10002c0 4.30084 0.200039 8.60168 0 12.90252-0.400078 7.701504-1.400273 15.202969-2.400469 22.904474-1.300254 9.901934-3.500684 19.503809-6.101191 29.005665-1.900371 7.301426-4.30084 14.402813-6.901348 21.40418-4.900957 13.102559-10.902129 25.605001-17.803477 37.607346-5.301035 9.201797-11.202188 17.903497-17.603439 26.305137-9.001758 11.902325-19.103731 22.804454-30.10588 32.906427-10.902129 9.901934-22.504395 18.903692-35.006837 26.705216-16.703262 10.602071-34.40672 19.103731-53.110373 25.404962-11.502247 3.900762-23.204532 6.901348-35.206876 9.001758-10.101973 1.800352-20.203946 3.200625-30.405939 3.600703-4.000781 0.10002-8.001563-0.10002-12.002344 0.700137-1.500293 0.300059-3.200625-0.10002-4.800938-0.200039-1.100215-0.10002-2.20043-0.400078-3.300645-0.400078-6.201211 0-12.402422-0.300059-18.703653-1.000195-9.701895-1.100215-19.30377-2.500488-28.805626-4.700918-15.202969-3.400664-29.905841-8.201602-44.108615-14.402814-14.302794-6.201211-27.90545-13.602657-40.70795-22.304356-14.702872-10.001954-28.305528-21.304161-40.507912-34.3067-4.800938-5.100996-9.501856-10.302012-14.002735-15.803087-10.101973-12.502442-18.903692-25.80504-26.405157-39.907794-6.50127-12.302403-12.202383-25.004884-16.403204-38.307482-4.000781-12.502442-7.301426-25.104903-9.201797-38.207463-1.500293-10.001954-2.800547-19.903887-2.900567-30.00586 0-0.800156 0-1.600313-0.200039-2.400469-0.800156-3.800742-0.700137-7.701504-0.300059-11.502247 0.700137-6.801328 0.500098-13.702676 1.400274-20.604024 0.900176-6.50127 1.500293-13.00254 2.800547-19.40379 1.800352-9.301817 4.100801-18.403594 6.801328-27.405352 3.300645-11.002149 7.401446-21.804259 12.302403-32.206291 6.40125-13.602657 13.902715-26.605196 22.704435-38.907599 7.701504-10.80211 16.303184-21.004102 25.504981-30.505958 10.402032-10.70209 21.804259-20.203946 33.906622-28.905646 10.80211-7.801524 22.304356-14.402813 34.106662-20.403985 9.101778-4.600899 18.603634-8.401641 28.305528-11.802305 8.001563-2.800547 16.103145-5.100996 24.404767-7.001367 9.301817-2.10041 18.703653-4.000781 28.305528-4.900957 8.60168-0.900176 17.20336-1.600313 25.80504-1.700333 10.201993-0.200039 20.403985 0.800156 30.605978 1.700333 8.901739 0.900176 17.803477 2.400469 26.505177 4.400859 19.103731 4.40086 37.407306 10.902129 54.910725 19.603829 7.601485 3.800742 14.902911 8.001563 22.104317 12.502442 11.902325 7.301426 23.004493 15.703067 33.306505 25.004884 8.401641 7.601485 16.403204 15.703067 23.804649 24.304747 6.001172 7.101387 11.602266 14.502833 16.903302 22.104317 4.900957 7.101387 9.101778 14.602852 13.402618 22.204337 6.701309 11.902325 12.002344 24.404767 16.303184 37.307286 5.701113 17.003321 9.701895 34.40672 11.602266 52.310217 0.800156 9.101778 1.400273 18.203555 1.200234 27.305333zM511.299863 164.957218c6.201211 0 12.502442 0.400078 18.703653-0.100019 7.001367-0.600117 14.002735-0.500098 21.004103-1.200235 5.901153-0.600117 11.802305-1.100215 17.703457-1.500293 4.900957-0.300059 9.901934-1.000195 14.702872-1.900371 3.500684-0.700137 7.001367-0.900176 10.402032-1.500293 6.001172-0.900176 11.902325-2.10041 17.903496-3.200625 11.502247-2.000391 22.804454-4.700918 34.106662-7.701504 24.204727-6.301231 47.709318-14.302794 70.713811-24.004689 12.102364-5.100996 24.004688-10.602071 35.606955-16.603243 22.404376-11.402227 43.908576-24.404767 64.312561-39.007618 8.401641-6.101192 16.803282-12.302403 24.904864-18.703653 6.801328-5.301035 13.302598-11.002149 19.803868-16.703263 11.802305-10.101973 22.604415-21.304161 33.506544-32.20629 3.800742-3.800742 6.801328-8.101582 8.001563-13.402618 2.400469-10.602071 0.600117-20.403985-6.801328-28.605587-4.600899-5.100996-9.901934-9.001758-16.803282-10.60207-9.901934-2.300449-19.003712-0.300059-27.305333 5.401055-2.600508 1.800352-4.800938 4.100801-7.001368 6.501269-5.301035 5.801133-10.80211 11.402227-16.603243 16.603243-4.700918 4.100801-9.201797 8.50166-13.802695 12.602462-10.101973 8.901739-20.504005 17.30338-31.406135 25.204922-9.301817 6.801328-18.803673 13.202579-28.605587 19.303771-16.703262 10.502051-34.106661 19.703848-51.910138 27.90545-20.804063 9.501856-42.308263 17.30338-64.312561 23.504591-15.10295 4.30084-30.305919 7.801524-45.808947 10.201992-6.901348 1.100215-13.802696 2.400469-20.804064 3.400664-4.700918 0.700137-9.601875 0.800156-14.302793 1.400274-8.101582 1.100215-16.203165 1.200234-24.404767 1.800352-9.101778 0.700137-18.203555 0.900176-27.305333 0.700136-8.301621-0.200039-16.603243-0.500098-24.904864-1.300254-1.000195-0.10002-1.900371-0.10002-2.900567-0.200039-7.201407-0.10002-14.302794-1.100215-21.5042-1.900371-7.101387-0.800156-14.302794-1.800352-21.40418-2.900566-9.301817-1.500293-18.503614-3.300645-27.705411-5.301036-13.102559-2.900567-26.105099-6.40125-38.80758-10.502051-10.602071-3.400664-21.204141-7.201407-31.506153-11.502246-12.90252-5.301035-25.504981-11.002149-37.907404-17.30338-21.5042-11.002149-42.008205-23.804649-61.512014-38.007423-10.001954-7.201407-19.503809-15.00293-29.005665-22.904474-5.501074-4.600899-10.70209-9.601875-16.003126-14.502832-4.800938-4.500879-9.501856-9.001758-14.202774-13.602657-1.400273-1.300254-2.600508-2.800547-3.900762-4.30084-4.900957-5.301035-10.602071-9.501856-17.703458-10.80211-9.801914-1.800352-19.30377-0.500098-27.105294 6.301231-6.50127 5.701113-10.402032 12.90252-10.502051 21.804258 0 2.900567-0.300059 5.801133 0.400078 8.60168 1.300254 5.701113 4.100801 10.70209 8.001563 15.10295 8.801719 10.001954 18.603634 18.903692 28.405548 27.90545 23.004493 21.204141 47.809338 40.107834 74.114476 56.811096 17.30338 11.002149 35.206876 20.904083 53.71049 29.705802 14.102754 6.801328 28.605587 12.8025 43.208439 18.303575 11.102168 4.20082 22.304356 7.901543 33.606564 11.302208 11.502247 3.400664 23.104513 6.50127 34.806798 9.001758 9.701895 2.10041 19.40379 4.000781 29.105685 5.701113 7.401446 1.300254 14.902911 2.10041 22.304356 3.100606 7.801524 1.000195 15.603047 1.600313 23.404571 2.300449 5.701113 0.500098 11.502247 0.500098 17.20336 1.000196 8.101582 0.700137 16.103145 0.700137 24.104708 0.500097z"  horiz-adv-x="1024" />

    
    <glyph glyph-name="ruku" unicode="&#58922;" d="M511.168 294.272c-21.952 0-36.48 12.928-36.48 32.256v476.8c0 19.328 14.528 32.192 36.48 32.192 21.888 0 36.48-12.864 36.48-32.256v-476.8c0-16-14.592-32.192-36.48-32.192zM511.168 294.272a35.328 35.328 0 0 0-25.6 9.728L277.504 487.616c-14.656 12.864-14.656 32.192 0 45.056a38.592 38.592 0 0 0 51.072 0l182.592-161.024 182.528 161.024a38.592 38.592 0 0 0 51.136 0c14.592-12.864 14.592-32.192 0-45.056l-208.128-183.68a35.328 35.328 0 0 0-25.6-9.6zM654.08 110.72H363.264c-29.056 0-58.112 16.064-72.64 41.856l-32.704 57.984c0 3.2-3.648 6.4-7.296 6.4H104.576c-10.88 0-21.76 3.2-29.056 12.928-7.232 9.6-7.232 12.864-7.232 22.528L177.28 774.272c10.88 35.456 43.584 61.248 79.936 61.248h90.88c21.76 0 36.288-12.864 36.288-32.256 0-19.328-14.528-32.192-36.352-32.192h-90.88s-7.232-3.2-7.232-9.6l-101.76-483.264h106.24c28.992 0 58.112-16.128 72.64-41.92l32.64-57.984c0-3.2 3.648-6.4 7.296-6.4H654.08c3.648 0 3.648 3.2 7.296 6.4l32.64 57.984a80.512 80.512 0 0 0 72.704 41.92h106.176l-105.408 483.2c0 6.4-7.232 9.664-7.232 9.664h-90.88c-21.76 0-36.288 12.864-36.288 32.192 0 19.392 14.528 32.256 36.288 32.256h90.88c39.936 0 72.64-25.792 79.936-61.248l108.992-521.856c3.648-9.6 0-19.328-7.296-25.792-7.232-6.4-18.176-12.8-29.056-12.8h-149.76c-3.584 0-3.584-3.264-7.232-6.528l-29.056-54.72a84.8 84.8 0 0 0-72.704-41.92zM829.888-66.56h-637.44c-69.44 0-124.16 54.848-124.16 119.232v193.28c0 19.328 14.592 32.256 36.48 32.256 21.888 0 36.48-12.928 36.48-32.256v-193.28c0-28.992 21.952-54.72 51.2-54.72h633.792c29.184 0 51.136 25.728 51.136 54.72v193.28c0 19.328 14.592 32.256 36.48 32.256 21.888 0 36.48-12.928 36.48-32.256v-193.28c3.712-64.384-51.072-119.168-120.448-119.168z"  horiz-adv-x="1024" />

    
    <glyph glyph-name="juanzong" unicode="&#58924;" d="M869.571048-121.660952H242.834286v63.634285h626.785524c35.888762 0 65.048381 28.525714 65.04838 63.585524V768.78019c0 35.108571-29.159619 63.634286-65.04838 63.634286H219.428571c-35.84 0-64.999619-28.525714-64.999619-63.634286v-507.611428H89.380571V768.78019C89.380571 838.997333 147.748571 896 219.428571 896h650.142477C941.29981 896 999.619048 838.948571 999.619048 768.78019V5.607619c0-70.168381-58.319238-127.21981-130.048-127.219809v-0.048762zM804.571429-121.660952H154.428952C82.70019-121.660952 24.380952-64.609524 24.380952 5.607619v190.756571c0 35.108571 29.159619 63.634286 64.999619 63.634286h650.191239c35.84 0 64.999619-28.525714 64.999619-63.634286v-318.025142zM89.380571 196.36419v-190.805333c0-35.108571 29.159619-63.585524 65.048381-63.585524h585.142858v254.390857H89.380571zM219.428571 641.609143h64.999619v-63.634286H219.428571V641.609143z m162.523429 0h455.143619a32.182857 32.182857 0 0 0 32.475429-31.841524 32.182857 32.182857 0 0 0-32.475429-31.792762H381.952a32.134095 32.134095 0 0 0-32.475429 31.792762 32.182857 32.182857 0 0 0 32.475429 31.841524z m0-190.805333h455.143619a32.182857 32.182857 0 0 0 32.475429-31.841524 32.182857 32.182857 0 0 0-32.475429-31.792762H381.952a32.134095 32.134095 0 0 0-32.475429 31.792762 32.182857 32.182857 0 0 0 32.475429 31.841524zM219.428571 450.80381h64.999619v-63.634286H219.428571V450.80381z"  horiz-adv-x="1024" />

    
    <glyph glyph-name="verification" unicode="&#59231;" d="M512 32c21.054 0.72 38.664-16.89 38-38 0.664-22.354-16.946-40-38-40H44c-24.684 0-44 19.314-44 44V854C0 876.686 19.316 896 44 896h698c24.65 0 44-19.314 44-42v-424c0-20.84-17.644-38.45-40-38-21.188-0.45-38.866 17.16-38 38V818H78v-786h434z m76 628c22.418 0 40-17.45 40-38 0-22.516-17.582-40-40-40H188c-22.384 0-40 17.484-40 40 0 20.55 17.616 38 40 38h400z m40-198c0-20.542-17.65-38-40-38H188c-22.386 0-40 17.458-40 38 0 22.542 17.614 40 40 40h400c22.35 0 40-17.458 40-40zM188 344h286c22.272 0 40-17.458 40-40 0-20.542-17.728-38-40-38H188c-22.306 0-40 17.458-40 38 0 22.542 17.694 40 40 40z m824-404c15.834-16.172 15.834-41.114 0-56-7.202-8.15-17.288-12-28-12-9.428 0-19.48 3.85-28 12l-86 88c-4.37 2.702-7.062 6.724-8 10-31.094-18.814-65.886-28.73-100-28-47.092-0.73-93.572 16.954-128 52-71.686 71.064-71.686 186.204 0 256 69.8 71.686 184.91 71.686 256 0 61.536-60.9 69.272-156.652 24-228 3.29-0.926 7.276-3.62 10-8l88-86zM688 62c40.316-40.04 105.71-40.04 146 0 40.04 40.29 40.04 105.684 0 146-20.224 19.95-46.614 30-74 30-25.394 0-51.75-10.05-72-30-40.05-40.316-40.05-105.71 0-146z"  horiz-adv-x="1024" />

    
    <glyph glyph-name="lishianjian" unicode="&#59017;" d="M665.6-51.2v-51.2H128V870.4h768V332.8h-51.2V819.2h-665.6v-870.4zM284.6208 358.4v51.2H512v-51.2zM284.6208 563.2v51.2h460.8v-51.2zM284.6208 153.6v51.2H409.6v-51.2zM665.6-102.4a281.6 281.6 0 1 0 0 563.2 281.6 281.6 0 0 0 0-563.2z m0 51.2a230.4 230.4 0 1 1 0 460.8 230.4 230.4 0 0 1 0-460.8zM768 204.8v-51.2h-128V332.8h51.2v-128z"  horiz-adv-x="1024" />

    
    <glyph glyph-name="chaxun" unicode="&#58888;" d="M229.836 718.808h461.986v-57.748H229.836v57.748z m-1.54-116.063h461.986v-57.748H228.297v57.748z m-113.955 232.5h692.977v-461.984h57.748V835.246c0 31.893-25.855 57.748-57.748 57.748H114.34c-31.893 0-57.748-25.855-57.748-57.748v-808.473c0-31.893 25.855-57.748 57.748-57.748h404.237v57.748H114.34V835.246z m115.11-463.486v-57.748h140.453c0 20.068 2.94 39.447 8.386 57.748H229.451z m236.111 115.496H228.297v-57.748H403.84a203.177 203.177 0 0 0 61.722 57.748z m437.246-464.777L770.39 153.322c30.444 35.382 48.852 81.417 48.852 131.754 0 111.627-90.493 202.119-202.117 202.119-111.626 0-202.118-90.492-202.118-202.119 0-111.624 90.492-202.118 202.118-202.118 40.412 0 78.05 11.867 109.63 32.299l135.218-133.614c11.276-11.276 29.558-11.276 40.834 0 11.274 11.277 11.274 29.558 0 40.835zM472.754 285.076c0 79.734 64.639 144.37 144.372 144.37 79.731 0 144.369-64.636 144.369-144.37 0-79.731-64.638-144.37-144.37-144.37s-144.37 64.639-144.37 144.37z"  horiz-adv-x="1045" />

    
    <glyph glyph-name="yiguidang" unicode="&#59101;" d="M1194.461538 403.692308L971.692308 869.538462a46.769231 46.769231 0 0 1-41.846154 26.461538H268.923077a46.769231 46.769231 0 0 1-41.846154-26.461538L4.307692 403.692308a50.461538 50.461538 0 0 1-4.307692-19.692308v-465.846154a46.769231 46.769231 0 0 1 46.153846-46.153846h1107.692308a46.153846 46.153846 0 0 1 46.153846 46.153846V384a50.461538 50.461538 0 0 1-5.538462 19.692308zM297.846154 803.692308h603.076923l178.461538-373.538462h-307.692307a46.153846 46.153846 0 0 1-46.153846-46.153846v-136H472.615385V384a46.769231 46.769231 0 0 1-46.153847 46.153846h-307.692307zM92.307692-35.692308V337.846154h288v-136a45.538462 45.538462 0 0 1 46.153846-46.153846h346.461539a46.153846 46.153846 0 0 1 46.153846 46.153846V337.846154H1107.692308v-373.538462zM508.307692 449.846154a43.692308 43.692308 0 0 1 32.615385-13.538462 45.538462 45.538462 0 0 1 32.615385 13.538462l212.923076 212.923077a46.153846 46.153846 0 1 1-65.230769 65.230769L540.923077 547.692308l-61.538462 61.538461a45.538462 45.538462 0 0 1-65.230769 0 46.153846 46.153846 0 0 1 0-65.230769z"  horiz-adv-x="1200" />

    
    <glyph glyph-name="weiguidang" unicode="&#59102;" d="M1194.461538 403.692308L971.692308 869.538462a46.769231 46.769231 0 0 1-41.846154 26.461538H268.923077a46.769231 46.769231 0 0 1-41.846154-26.461538L4.307692 403.692308a40.615385 40.615385 0 0 1-4.307692-17.23077v-468.307692a46.769231 46.769231 0 0 1 46.153846-46.153846h1107.692308a46.153846 46.153846 0 0 1 46.153846 46.153846V384a41.230769 41.230769 0 0 1-5.538462 19.692308zM297.846154 803.692308h603.076923l178.461538-373.538462h-307.692307a46.153846 46.153846 0 0 1-46.153846-46.153846v-136H472.615385V384a46.769231 46.769231 0 0 1-46.153847 46.153846h-307.692307zM92.307692-35.692308V337.846154h288v-136a45.538462 45.538462 0 0 1 46.153846-46.153846h346.461539a46.153846 46.153846 0 0 1 46.153846 46.153846V337.846154H1107.692308v-373.538462zM448 643.692308h303.384615a46.153846 46.153846 0 0 1 0 92.307692H448a46.153846 46.153846 0 0 1 0-92.307692zM390.769231 491.076923h417.846154a46.153846 46.153846 0 0 1 0 92.307692H390.769231a46.153846 46.153846 0 0 1 0-92.307692z"  horiz-adv-x="1200" />

    
    <glyph glyph-name="guidang1" unicode="&#58950;" d="M737.28 506.88c0-15.36-15.36-30.72-30.72-30.72h-384c-15.36 0-30.72 15.36-30.72 30.72s15.36 30.72 30.72 30.72h384c15.36 5.12 30.72-10.24 30.72-30.72z m-35.84 194.56h-384c-15.36 0-30.72-15.36-30.72-30.72s15.36-30.72 30.72-30.72h384c15.36 0 30.72 15.36 30.72 30.72s-10.24 30.72-30.72 30.72z m322.56-419.84v-322.56c0-35.84-30.72-66.56-61.44-66.56h-896c-35.84 0-61.44 30.72-61.44 66.56v322.56 5.12 10.24l163.84 547.84c5.12 15.36 20.48 25.6 35.84 20.48h624.64c15.36 5.12 30.72-5.12 35.84-20.48l163.84-547.84v-10.24c-5.12 0-5.12 0-5.12-5.12z m-947.2 66.56h209.92c15.36 0 30.72-15.36 30.72-30.72v-97.28c0-15.36 15.36-30.72 30.72-30.72h317.44c15.36 0 30.72 15.36 30.72 30.72v97.28c0 15.36 15.36 30.72 30.72 30.72h209.92l-138.24 460.8H204.8l-128-460.8z m880.64-97.28c0 15.36-15.36 30.72-30.72 30.72h-158.72v-97.28c0-35.84-30.72-66.56-66.56-66.56h-384c-35.84 0-66.56 30.72-66.56 66.56v97.28h-158.72c-15.36 0-30.72-15.36-30.72-30.72v-256c0-15.36 15.36-30.72 30.72-30.72h829.44c15.36 0 30.72 15.36 30.72 30.72v256h5.12z"  horiz-adv-x="1029" />

    
    <glyph glyph-name="guidangqingkuangtongji" unicode="&#59038;" d="M933.314605 544.050206l-199.097524 202.737424-26.613124 27.100218H186.02888c-66.87613 0-121.284297-54.408167-121.284297-121.284297v-537.206078c0-66.87613 54.408167-121.284297 121.284297-121.284298h651.94224c66.87613 0 121.284297 54.408167 121.284297 121.284298V517.635603l-25.940812 26.414603z m-64.596204-428.652733c0-16.911158-13.836123-30.747281-30.747281-30.747282H186.02888c-16.911158 0-30.747281 13.836123-30.747281 30.747282V652.603551c0 16.911158 13.836123 30.747281 30.747281 30.747281h483.59302l199.096501-202.736401v-365.216958zM508.029572 604.441645c-127.158075 0-230.238778-103.081727-230.238778-230.238779s103.081727-230.239801 230.238778-230.239801S738.26835 247.044792 738.26835 374.202866H508.029572V604.441645zM546.402531 412.575826H735.085868c-16.175401 96.41284-92.270497 172.507936-188.683337 188.683336v-188.683336z"  horiz-adv-x="1024" />

    
    <glyph glyph-name="pipeijieguo" unicode="&#58964;" d="M302.9504 179.2h358.4c16.4864 0 29.8496-13.1072 29.8496-29.2352a29.5424 29.5424 0 0 0-29.8496-29.2864h-358.4a29.5424 29.5424 0 0 0-29.9008 29.2864c0 16.128 13.3632 29.2352 29.9008 29.2352z m0 146.2784h179.2c16.4864 0 29.8496-13.1072 29.8496-29.2352a29.5424 29.5424 0 0 0-29.8496-29.2864h-179.2a29.5424 29.5424 0 0 0-29.9008 29.2864c0 16.128 13.3632 29.2352 29.9008 29.2352z m324.9152 442.368l216.2688-211.8656c16.8448-16.4352 26.2656-38.7584 26.2656-62.0544v-431.7696c0-48.4352-40.1408-87.7568-89.6-87.7568H243.2C193.7408-25.6 153.6 13.7216 153.6 62.1568V705.8432C153.6 754.2784 193.7408 793.6 243.2 793.6h321.28c23.7568 0 46.592-9.216 63.3856-25.7024z m-26.2656-56.9856v-180.5824h184.32l-184.32 180.5824z m-49.4592 24.2176H243.2a29.5424 29.5424 0 0 1-29.8496-29.2352v-643.6864c0-16.128 13.312-29.2352 29.8496-29.2352h537.6a29.5424 29.5424 0 0 1 29.8496 29.2352V481.792v-10.0352H601.6a59.136 59.136 0 0 0-59.7504 58.5216v204.8h10.24z"  horiz-adv-x="1024" />

    
    <glyph glyph-name="ziyuan" unicode="&#58917;" d="M278.529518 714.746522h293.374093a28.671814 28.671814 0 1 1 0 57.343627H278.529518a28.671814 28.671814 0 0 1 0-57.343627zM450.560399 647.674958H278.529518a28.671814 28.671814 0 0 1 0-58.879617H450.560399a28.671814 28.671814 0 1 1 0 57.343627zM886.269567 336.380982V815.09787A80.895474 80.895474 0 0 1 804.3501 895.993344H219.6499a80.895474 80.895474 0 0 1-80.895474-80.895474v-288.254126A92.159401 92.159401 0 0 1 47.107022 435.196339v-467.452961A92.159401 92.159401 0 0 1 137.730433-128h748.539134a92.159401 92.159401 0 0 1 90.623411 93.695391v276.9902a92.159401 92.159401 0 0 1-90.623411 93.695391zM196.098053 815.09787a23.551847 23.551847 0 0 0 23.551847 23.551847h584.7002a23.551847 23.551847 0 0 0 23.551847-23.551847v-478.716888h-153.599002a36.86376 36.86376 0 0 0-30.7198 16.89589L555.519717 486.396006a93.695391 93.695391 0 0 1-77.823494 42.495724h-281.59817zM921.597338-34.304609a34.815774 34.815774 0 0 0-33.279784-36.351764H137.730433a34.815774 34.815774 0 0 0-35.327771 36.351764V435.196339a34.815774 34.815774 0 0 0 33.279784 36.351764h342.013777a36.351764 36.351764 0 0 0 30.207804-16.89589l87.039434-131.071148a94.719384 94.719384 0 0 1 78.335491-42.495724h212.990615a34.815774 34.815774 0 0 0 33.279784-36.351764z"  horiz-adv-x="1024" />

    
    <glyph glyph-name="shencha" unicode="&#58883;" d="M264.967 181.931c-16.478 0-29.885-13.408-29.885-29.89 0-16.476 13.406-29.882 29.885-29.882h232.674c16.477 0 29.883 13.406 29.883 29.882 0 16.482-13.406 29.89-29.883 29.89H264.967zM148.027 15.707c-5.344 5.347-8.285 12.451-8.282 20.013V733.727c0 7.556 2.942 14.657 8.29 20.002 5.34 5.344 12.44 8.286 19.997 8.286h338.507v-183.4c0-13.157 5.124-25.53 14.434-34.845 9.31-9.305 21.683-14.428 34.84-14.428H739.21v-207.27h59.77V602.057L599.238 821.783H168.033c-23.524 0-45.637-9.16-62.262-25.79-16.634-16.63-25.795-38.741-25.795-62.266V35.72c0-48.553 39.502-88.056 88.056-88.056h394.296v59.751H168.033c-7.558 0-14.663 2.945-20.006 8.292zM566.309 589.11V762.014h4.211L726.141 589.11H566.31zM639.88 292.222c5.32 9.22 5.32 20.67 0 29.89-5.323 9.222-15.244 14.95-25.888 14.95l-10.496-0.018H264.967c-16.478 0-29.885-13.408-29.885-29.888 0-16.479 13.406-29.885 29.885-29.885h349.026c10.645 0.001 20.566 5.73 25.887 14.951zM264.967 432.385h349.026c10.646 0 20.566 5.728 25.889 14.949 5.32 9.22 5.32 20.673-0.003 29.891-5.322 9.22-15.243 14.949-25.886 14.949H264.967c-16.473 0-29.876-13.41-29.876-29.893 0-16.485 13.402-29.896 29.876-29.896z m-0.303 155.135l97.26-0.004c16.478 0 29.885 13.408 29.885 29.888 0 16.48-13.407 29.886-29.886 29.886h-96.956l-0.303-0.004c-16.28-0.47-29.032-13.596-29.032-29.88 0-16.289 12.753-29.415 29.032-29.886z m679.35-620.292v86.208a20.682 20.682 0 0 1-10.266 18.395l-132.899 82.866c26.429 12.04 44.77 38.288 44.77 68.731 0 41.861-34.604 75.792-77.268 75.792v0.016c-42.664 0-77.268-33.946-77.268-75.792 0-30.455 18.34-56.704 44.77-68.744l-132.901-82.868a20.676 20.676 0 0 1-10.267-18.395l-0.01-86.52c0-11.414 9.29-20.7 20.705-20.7h309.941c11.414 0 20.7 9.285 20.7 20.7a5.263 5.263 0 0 1-0.008 0.31zM768.348 126.206l83.155-51.856H685.197l83.152 51.856z m134.276-138.584H634.073V32.96h268.551v-45.337z"  horiz-adv-x="1024" />

    
    <glyph glyph-name="jieyue" unicode="&#58900;" d="M622.933333-128H160C70.4-128 0-57.6 0 32v704C0 825.6 70.4 896 160 896h706.133333C953.6 896 1024 825.6 1024 736v-232.533333c0-19.2-14.933333-36.266667-36.266667-36.266667-19.2 0-36.266667 14.933333-36.266666 36.266667V736c0 49.066667-40.533333 89.6-89.6 89.6H160c-49.066667 0-89.6-40.533333-89.6-89.6v-706.133333c0-49.066667 40.533333-89.6 89.6-89.6h465.066667c19.2 0 36.266667-14.933333 36.266666-36.266667-2.133333-17.066667-19.2-32-38.4-32zM462.933333 637.866667H224c-19.2 0-36.266667 14.933333-36.266667 36.266666 0 19.2 14.933333 36.266667 36.266667 36.266667h238.933333c19.2 0 36.266667-14.933333 36.266667-36.266667-2.133333-21.333333-17.066667-36.266667-36.266667-36.266666zM695.466667 401.066667H224c-19.2 0-36.266667 14.933333-36.266667 36.266666s14.933333 36.266667 36.266667 36.266667h471.466667c19.2 0 36.266667-14.933333 36.266666-36.266667s-17.066667-36.266667-36.266666-36.266666zM1021.866667 160c0-8.533333-4.266667-19.2-10.666667-25.6l-125.866667-125.866667c-6.4-6.4-14.933333-10.666667-25.6-10.666666-8.533333 0-17.066667 4.266667-25.6 10.666666-12.8 12.8-12.8 36.266667 0 49.066667l66.133334 66.133333H512c-19.2 0-36.266667 14.933333-36.266667 36.266667 0 19.2 14.933333 36.266667 36.266667 36.266667h390.4l-66.133333 66.133333c-12.8 12.8-12.8 36.266667 0 49.066667 12.8 12.8 36.266667 12.8 49.066666 0l125.866667-125.866667c8.533333-8.533333 10.666667-17.066667 10.666667-25.6z"  horiz-adv-x="1024" />

    
    <glyph glyph-name="yijiedan" unicode="&#58884;" d="M448-47v-80H209c-66.274 0-120 53.726-120 120V775C89 841.274 142.726 895 209 895h587c66.274 0 120-53.726 120-120v-439h-80V775c0 22.091-17.909 40-40 40H209c-22.091 0-40-17.909-40-40v-782c0-22.091 17.909-40 40-40h239zM326 604.5c-22.091 0-40 17.909-40 40s17.909 40 40 40h370.743c22.091 0 40-17.909 40-40s-17.909-40-40-40H326z m0-177c-22.091 0-40 17.909-40 40s17.909 40 40 40h370.743c22.091 0 40-17.909 40-40s-17.909-40-40-40H326z m0-177.5c-22.091 0-40 17.909-40 40s17.909 40 40 40h200c22.091 0 40-17.909 40-40s-17.909-40-40-40H326z m407.656-15.905c16.11 15.873 45.019 15.873 61.018 0 6.4-6.393 12.8-19.069 12.8-28.548 0-12.676-3.2-22.266-12.8-28.55l-77.128-76.276h264.635c22.51 0 41.819-19.07 41.819-41.335 0-22.266-19.31-41.335-41.82-41.335H717.547l77.128-76.277c6.4-6.394 12.8-19.07 12.8-28.55 0-12.675-3.2-22.265-12.8-28.548-6.4-9.48-19.31-12.676-28.909-12.676-9.6 0-22.51 3.197-28.91 12.676L589 30.83699999999999c-3.2 3.197-6.4 9.48-9.6 12.676-3.2 9.48-3.2 22.266 0 31.745 0 3.197 3.2 9.48 6.4 12.677l147.856 146.16z"  horiz-adv-x="1024" />

    
    <glyph glyph-name="danganguanli1" unicode="&#59548;" d="M195.584 526.912c-0.896 0 613.504 1.472 616.128 0h61.632V608.96a20.48 20.48 0 0 1-20.416 20.544H503.936a40.96 40.96 0 0 0-34.176 18.304l-70.016 104.96H155.008a20.544 20.544 0 0 1-20.736-20.288v-205.504z m677.696-82.176H134.272v-410.624a20.672 20.672 0 0 1 20.672-20.672h697.92a20.544 20.544 0 0 1 20.672 20.544V444.736z m-20.416 266.944a102.4 102.4 0 0 0 102.4-102.784v-574.976a102.72 102.72 0 0 0-102.784-102.4H154.944a102.848 102.848 0 0 0-102.848 102.4V732.16a102.784 102.784 0 0 0 102.4 102.848h267.072a41.088 41.088 0 0 0 34.176-18.112l69.952-104.96zM277.696 526.912z m271.424-410.56a24.896 24.896 0 1 0 41.984 24.32 128 128 0 0 1 41.792 72.384 24.96 24.96 0 0 0 0 48.576 128 128 0 0 1-41.792 72.384 24.896 24.896 0 0 0-41.984 24.32 128.576 128.576 0 0 1-83.584 0 24.896 24.896 0 1 0-41.984-24.32 128 128 0 0 1-41.792-72.384 24.96 24.96 0 0 0 0-48.576 128 128 0 0 1 41.792-72.384 24.896 24.896 0 0 0 41.984-24.32 128 128 0 0 1 83.904 0z m-96.576 120.96a54.784 54.784 0 1 0 54.784-54.848 54.848 54.848 0 0 0-54.4 54.848z"  horiz-adv-x="1024" />

    
    <glyph glyph-name="jinduchaxun" unicode="&#58997;" d="M593.93024 614.17984h-392.2944c-19.73248 0-35.66592 19.59936-35.66592 39.6032 0 20.06528 15.93344 39.66976 35.66592 39.66976h392.2944c19.73248 0 35.73248-19.59936 35.73248-39.66976 0-20.00384-16-39.6032-35.73248-39.6032zM390.4512 425.29792H201.64096c-19.73248 0-35.66592-19.59936-35.66592-39.59808 0-20.00384 15.93344-39.66976 35.66592-39.66976H390.4512c19.73248 0 35.67104 19.66592 35.67104 39.66976 0 19.99872-15.93856 39.59808-35.67104 39.59808z m0-270.21312H201.64096c-19.73248 0-35.66592-19.67104-35.66592-39.66976 0-20.00384 15.93344-39.6032 35.66592-39.6032H390.4512c19.73248 0 35.67104 19.59936 35.67104 39.6032 0 19.99872-15.93856 39.66976-35.67104 39.66976z m282.28608-162.74432c-57.06752 0-114.14016 22.0672-157.54752 66.13504-86.87104 88.27392-86.87104 231.81312 0 320.02048 86.87104 88.1408 228.21376 88.1408 315.01824 0 86.87616-88.20736 86.87616-231.74656 0-320.02048-43.4688-44.07296-100.4032-66.13504-157.47072-66.13504z m0 379.88864a149.59104 149.59104 0 0 1-107.07456-45.0048c-59.06944-59.93472-59.06944-157.5424 0-217.48224 59.00288-60.00128 155.07456-59.93472 214.144 0 59.00288 59.93984 59.00288 157.54752 0 217.48224-29.53728 30.0032-68.27008 45.0048-107.06944 45.0048z m279.61344-456.89344a35.18464 35.18464 0 0 0-25.20064 10.5984l-126.14144 128.0768c-13.93664 14.13632-13.93664 37.0688 0 51.20512a35.14368 35.14368 0 0 0 50.40128 0l126.14656-128.0768c13.93664-14.13632 13.93664-37.0688 0-51.20512a35.3024 35.3024 0 0 0-25.20576-10.5984zM558.05952-128H147.36384C88.69376-128 40.96-79.53408 40.96-19.9936V787.98848C40.96 847.52896 88.69376 896 147.36384 896h676.51072c58.67008 0 106.40896-48.47104 106.40896-108.0064V493.9776c0-20.0704-15.93344-36.27008-35.67104-36.27008s-35.67104 16.19968-35.67104 36.27008V787.98848c0 19.60448-15.73376 35.60448-35.072 35.60448H147.36384c-19.33312 0-35.06688-16-35.06688-35.60448v-807.9872c0-19.59936 15.73376-35.60448 35.06688-35.60448h410.69568c19.66592 0 35.59936-16.19968 35.59936-36.1984s-15.93344-36.1984-35.59936-36.1984z"  horiz-adv-x="1024" />

    


  </font>
</defs>
</svg>
